<?xml version="1.0" encoding="UTF-8"?><svg id="a" xmlns="http://www.w3.org/2000/svg" xmlns:xlink="http://www.w3.org/1999/xlink" viewBox="0 0 464.16 564.47"><defs><style>.c{fill:url(#b);}.d{fill:#fcfcfc;}.e{fill:#fff;}.f{fill:#1c8893;}</style><linearGradient id="b" x1="411.04" y1="206.82" x2="759.26" y2="5.77" gradientTransform="translate(-331.12 542.35) rotate(-15.89) scale(1 -1)" gradientUnits="userSpaceOnUse"><stop offset="0" stop-color="#efb400"/><stop offset="1" stop-color="#ef9300"/></linearGradient></defs><path class="e" d="M65.29,437.33l-1.42-.07c.47,.07,.95,.09,1.42,.07Z"/><path class="e" d="M53.97,431.94l.1-.1c-.25-.23-.49-.47-.72-.72,.22,.22,.39,.52,.62,.82Z"/><g><path class="c" d="M42.92,82.52L21.99,459.49c-.45,8.09,5.75,15.01,13.84,15.46,3.8,.21,7.54-1.07,10.42-3.56L443.34,127.02c6.12-5.31,6.77-14.58,1.46-20.7-2.49-2.87-6.01-4.66-9.8-4.99L58.85,68.71c-8.08-.7-15.2,5.27-15.9,13.35-.01,.15-.02,.31-.03,.46Z"/><path class="e" d="M362.8,96.44c-.45-.08-.91-.07-1.35,.03,.85,.02,1.54,.04,1.35-.03Z"/><path class="e" d="M383.26,98.99l-1.2-.15c.39,.1,.8,.15,1.2,.15Z"/><path class="e" d="M356.66,83.03c.1,.13,.25,.23,.41,.27-.03-.07-.18-.16-.41-.27Z"/><path class="e" d="M420.74,103l-.16-.03c-1-.01-.43,.01,.16,.03Z"/><path class="e" d="M33.16,197.51c-.31,5.29,.62,2.53,1.04,3.67-.14,6.32-.73,2.88-1.26,5.01,.02,3.93,.53,7.01,.33,9.95-.14,.21-.21,.78-.33,.1,.38,4.19-.66,12.36-.16,17.26-.04,.22-.12,.43-.23,.62,.44-.77,.85-.87,1.11-.69-.12,2.37,.25,4.42-.31,5.29,.08-.77,0-1.54-.22-2.28l.09,2.49c-.85,2.2-.07-3.4-.6-3.43-.03,4.86,.26,10.54-.14,14.27-.76,.73,.24-8.7-.67-3.77l.56-5.72c-1.38,4.32,.27-3.48-1.15,.48-.62,7.55-.11,8.47-.74,16,.3,1.71,.61-.54,.92,1.18,.13,10.75-2.27,8.31-1.75,16.25,.36,2.09,1.23,2.93,.44,8.49l-.71-1.99c-.49,7.31,.92,4.24-.04,11.87-.25-1.38,.05-5.76-.11-4.67-.91,4.92,.26,3.54,.06,7.35l-.76,.74c-.33,7.76-.28,16.41-.63,25.03-.14-.51-.33-1.97-.66,.02-.25,10.9-1.38,23.21-2.38,33.68l.4,4.05c-.06,.93-.38,1.71-.44,.69-.46,4.07,.37,.23,.51,2.21-.08,2.33-.52,3.05-.65,1.57,.12,7.25-.01,20.61-1.1,28.18l-.1-1.49c-.58,5.91,.89,6.75,.02,12.21l-.06-1.08c-.99,12.83-1.21,27.06-2.66,36.8,.8,1.96-1.11,12.69,.09,13.58-.52,3.65-.78,4.94-1.07,6.62-.07,.42-.14,.84-.2,1.38s-.07,1.26-.09,2.06c-.03,.44,0,.87,.07,1.31,.07,.46,.14,.98,.21,1.53,.13,.6,.29,1.19,.5,1.76l.29,1.01c.1,.34,.3,.67,.46,1.02,.62,1.26,1.51,2.37,2.6,3.26l1.66,1.26c.63,.4,1.34,.85,2.11,1.39l-.27,.59c1.61,.77,3.33,1.3,5.1,1.57l1.3,.72c.44,.21,.9,.4,1.36,.56,1.25,.09,2.52,.04,3.76-.14-1.51,.08-3.16-.19-2.92-.42,.71,.04,1.47-.07,2.23-.09,.78-.06,1.55-.17,2.31-.33,1.48-.29,2.93-.77,4.3-1.41l.97-.43c.28-.16,.54-.33,.79-.48l1.37-.81c.73-.44,1.1-.65,1.19-.61l8.62-8.18c-.03,.37-1.47,1.73-2.53,2.91,4.34-4.64,1.31-.23,5.29-4.48-.69,.39,.06-.56,.07-.75,3.85-2.84,7.52-5.91,10.98-9.21l-.41,.95c6.71-5.67,13.85-12.28,21.29-18.74-2.8,2.16-2.7,1.04-.57-.93l1.32-.23c1.14-1.55-2.45,1.79,.11-1.13,2.83-2.35,2.38-1.03,.93,.52l3.23-3.11c.34,0-.39,.76-.42,1.13,1.11-1.52,6.29-4.54,7.8-6.83l.32-.02c7.45-6.45,10.67-9.55,16.72-14.84-.28-.55,2.19-2.51,3.67-4.44,4.58-3.71,9.86-7.67,15.17-12.36,3.58-3.49,.78-1.32,2.24-3.07,.63,.17,5.96-4.52,3.43-1.82,6.38-5.65,8.16-7.22,16.02-14.61-1.02,.6-2.08,1.38-1.69,.8,1.42-1.35,3.51-2.74,3.48-2.37l-.36,.39c8.62-8.55,22.15-17.13,28.7-24.3l-.38,.39,7.17-6.99c3.54-2.95-1.82,2.12,.97,.14,7.56-7.75,12.97-11.07,19.28-17.35,6.24-3.3,18.37-16.07,26.04-21.38l-.65,.06c1.58-1.85,2.32-1.76,3.73-2.83-.38-.06-2.19,1.46-1.2,.34,15.06-13.65,32.05-27.07,48.02-40.46,5.81-4.94,1.99-4.3,9.83-9.92l-1.6,2.32c11.07-10.7,23.77-20.58,34.68-30.98-.42,.7-.96,1.32-1.58,1.85,2.74-1.7,8.9-7.69,8.66-8.03,1.76-1.5,.66-.08,1.88-.86,2.62-1.84,5.63-5.73,7.24-6.44,.28-.08-.56,.71-.98,1.12,1.41-1.55,7.36-6.3,5.47-5.43,4.49-3.47,7.99-7.28,11.62-9.98,1.8-2.42,7.52-6.1,7.62-7.4,.29,1.01,7.99-5.91,10.39-8.6-.71,1,2.54-1.82,1.75-.59,3.07-2.68,5.78-5.27,4.92-5.17,6.43-4.02,10.8-10.59,14.95-12.25,8.81-8.32,17.06-15.93,25.14-23.24,.29,1.01-9.03,7.97-8.03,8.42,3.78-3.54,6.65-6.44,9.57-9.29,1.46-1.42,2.93-2.82,4.53-4.27l2.51-2.24,.67-.57,.72-.71c.52-.47,1-.97,1.45-1.51,.93-1.16,.77-.77,.3,.06-.27,.47-.58,.91-.94,1.31l-.81,1.02c4.29-4.07,6.22-10.03,5.14-15.84-1.01-5.45-4.73-10.01-9.88-12.08,.74,.18,1.45,.45,2.12,.8l-1.55-.73-.73-.36c-.23-.1-.47-.18-.71-.25-.88-.28-1.51-.4-1.45-.16l1.96,.54c.68,.5,.51,.6-.09,.48s-1.72-.3-2.89-.43l-1.81-.08c-.6-.04-1.09,.01-1.59,.03-.58,0-1.17,.04-1.74,.16,3.16-.97-9.07-1.08-4.02-2.23-1.2-.02-2.7,.06-2.46,.37-1.75-.23-2.31-.44-.49-.63-6.48-.34-4.22,.33-10.07-.19,.04-.21,1.23-.19,1.85-.37-3.65,.25-7.32,.15-10.95-.31,.31-.09-.24-.31,1.23-.19-8.5-.67-14.58-.17-23.86-1.36,2.83-.67-3.14-.57-3.56-1.41l-5.04-.2,1.98,.53c-4.39-.39-8.32-.16-12.07-.75l3.28-.03-8.25-.63,4.58,.72c-4.47,.01,.38,.99-5.39,.3,1.19,.02-4.39-.39-6.64-1.06h0c-2.56,.14-5.13,.02-7.68-.34-.83-.32,.75-.8,.22-1.01-2.2,.46-10.3-.71-13.07-.25,.92-.09,.96-.48,.71-.6l-1.84,.37c-2.01-.35-2.31-.44-1.94-.75-6.12-.64,1.85,1.16-5.37,.1,.5-.05,1-.08,1.5-.08-7.27-.85-14.12-.89-20.8-1.75-1.92-.97,5.87,.31,3.66-.55-9.68-.69-20.1-.78-29.43-1.79l1.73,.24c-1.39,1-6.9-1.16-11.69-1.05,1.17,.02,1.58-.45,1.26-.36-6.38-.73-13.11-.87-22.84-1.35l1.22-.18c-3.75-.59-9.92-1.01-13.98-1.5-1.24,.18-3.57-.08-2.19,.47-12.42-2.72-24.05-1.2-35.08-3.53,1.34,.11,3.21,.03,2.17-.07l-9.52-.57c.72,.55,1.21,.4,3.18,.96-2.09,.18-4.19,.17-6.28-.03,4.3,.04,.03-.79-1.79-1.22,.3,.18-.35,.28-.2,.45-4.89-1.29-.92,.91-7.64-.27l.38-.22c-2.55-.1-4.91,.04-7.63-.27-1.09-.67,2.72-.03,2.93-.47-3.84-.31-7.67,.4-11.08-.46,1.65-.02,4,.19,5.63,.17-2.28-.64-4.62-1.04-6.98-1.21l.27,.04-6.51-.87,1.65,.32c-4.94,1.04-9.81-.58-16.37-.18,6.37-.37,1.08-.44,1.62-1.03-1.64-.32-4.14-.73-3.41-.85-3.1,.25-5.07-.85-9.45-.47-.17-.22-3.27-.31-2.54-.76-4-.19,.91,.44,.55,.66-6.19,.16-14.34-2.09-23.24-1.9-7.64-.27-9.1,.3-16.2,.03-2.34-.53,2.03-.58,2.03-.58-3.42-.57-6.88-.87-10.35-.91,.76-.12,.01-.33-1.07-.66-2.91-.2-2.03,.58-5.81-.06,.97-.29,1.96-.48,2.97-.57-3.44-.12-6.86-.02-10.42-.14-.9-.44,2.19-.36,3.45-.48-2-.09-4.58-.24-6.83-.3-1.05-.06-2.09-.02-3.13,.1-.64,.05-1.27,.23-1.84,.52,.45-.05,.9-.07,1.35-.04,.44-.02,.89,0,1.33,.06-.75-.03-.95-.08-.82-.24,.35-.24,.76-.36,1.19-.34,3.56-.21,4.94,.61,5.14,.82l-2.53-.09c2.5,1.48,10.16,.69,15.23,1.19l-2.19,.69,5.28-.28c1.09,.33,1.8,.88-.72,.79,3.61,.75,3.28-.03,6.34,.73,.34,.1,.18,.12-.15,.14l3.59,.07c-.71,.13,.54,.67-1.64,.36,6.35,1.05,10.36,.24,12.71,1.1h-.53c8.89,.48,.93-.56,7.63-.73l4.34,1.96,.94-.56c.92,.1,2.72,.32,2.34,.54,3.44-.15-.56-.33,1.46-.58,4.34,.95,12.16,.79,13.06,1.89,1.62-.34-4.17-.74,.55-.67,1.25,1.22,5.45,.29,9.42,1.14-1.28,.46-5.06-.17-1.09,.68,2.52-.72,7.82,.89,11.23,1,.23-.74,7.41,.32,13.11,.56-.37,.23,10.67,1.34,15.91,2.04l-.18,.12c1.1-.68,6.55-.06,10.54,.12-.19,.45-.93,.57-3.12,.59l3.74,.33c1.5-.19,3.01-.22,4.51-.08l-.96,.48c4.98,.4,10.09,.2,16.45,1.13,.41-.5-4.93-1.95,1.84-1.71,.23,.31,.43,.83-1.35,.8,1.09-.04,2.18,.02,3.26,.17l-2.75,.26c2.9,.47,1.56-.28,3.89-.01-.08,.42,1.7,.45,1.3,.72-.97-.15-1.95-.24-2.93-.26,2.3,.21,4.58,.62,6.81,1.23-.22-.26,.05-.56,1.98-.44,4.98,.4,1.66,.62,4.54,1.11,1.23-.18,4.38,.39,4.52-.19,.79,.04,1.56,.26,2.25,.65,2.59-.05,12.03,.96,9.19,.06l-.66-.1h.43c8.49,.12,17.5,1.87,25.85,2.35l-.03,.21c5.02,.19,11.18,.81,14.75,.69,1.47,.13,3.48,.67,2.8,.88,3.27,0,6.54,.27,9.78,.8-3.87,0,1.3,.44-3.96-.08,4.96,.6,6.05,1.04,11.44,.94-1.87,.37,3.68,.99,6.05,1.04l-3.48-.67c2.66,.15,4.98,.4,7.32,.65l-1.33,.59c10.08,1.73,18.46,.14,26.06,2.24,2.73-.26-5.49-.82-3.03-1.18,4.66,.49,9.45,1.92,10.91,2.05,6.38,.93,6.06-.51,12.74,.34-.84-.32-1.58-1.06,3.45-.86,4.66,.5,5.65,1.54,2.69,1.49-1.12-.08-1.67-.2-1.6-.28-1.52-.05-3.51-.1-1.69,.32l.64-.18c2.31,.44,8.73,.99,7.19,1.24,3.56,.08,1.54-.27-1.07-.63,5.97,.87,9.38,.82,15.53,1.6-.97-.23-1.85-.57-.88-.51,9.07,1.08,4.04-.13,10.18,.29,3.48,.68-1.33,.8,4.88,1.02,3.76,.58,.74,.73-.78,.8,5.67,0,10.5,1.23,13.7,1.58l-2.98-.06c1.79,.04,3.24,.17,4.72,.3l-1.65-.63c1.73,.24,3.2,.37,3.16,.57,1.81-.17-1.36-.93,2.3-1.08,2.31,.44,7.08,.34,7.82,1.06-7.27-.85,.76,.74-5.39,.3,1.47,.05,2.94,.18,4.39,.39,.25,.09-.27,.08-.75,.11,6.91,1.2,3.28-.47,10.52,.17-.96,.27,1.61,.86,2.8,.88-1.46-.13-1.79-.32-1.43-.48,.34-.11,.68-.18,1.04-.21,.56-.08,1.12-.11,1.69-.07,.49,.12,.94,.22,1.33,.29s.72,.25,1.02,.32c.5,.13,.99,.29,1.47,.48l1.14,.42c.41,.21,.8,.47,1.16,.76l-.96-.77-1.07-.61c.73,.08,1.43,.36,2.02,.82,.5,.28,.96,.62,1.38,1.01,.54,.44,1.03,.94,1.46,1.48-.05,.2-.45-.34-.89-.71s-.78-.69-.44-.28c.73,.49,1.35,1.13,1.82,1.87,.49,.83,.88,1.72,1.14,2.65,.54,2.04,.8,4.15,.76,6.26-.54,1.96-.73,.12-1.19,1.76-.14,.56-.27,1.06-.39,1.51-.15,.39-.34,.78-.55,1.14-.33,.6-.75,1.15-1.24,1.63l-.33,.36-.39,.33c-.27,.22-.54,.46-.88,.74s-.73,.63-1.13,1.02-.92,.84-1.45,1.37c1.62-.73,1.77-1.03-1.06,2.08l3.56-3.32c.27-.25,.53-.52,.78-.8l.72-.78c.43-.55,.83-1.12,1.2-1.71-.39,.83-.87,1.61-1.43,2.32-.28,.4-.57,.78-.89,1.14l-1.06,1.16c.54-.48,1.16-.99,1.62-1.49s.91-.98,1.3-1.47,.66-1.03,.95-1.46,.44-.9,.63-1.28c-.14,.48-.31,.94-.5,1.4-.09,.17-.17,.34-.22,.52-.02,.13,.31-.09,.82-.57-.3,.36-.67,.67-.97,1.03-.28,.37-.58,.72-.92,1.04-.33,.34-.64,.67-.96,1.03s-.72,.72-1.07,1.08c-1.51,1.59-3.15,3.04-4.91,4.33l-.71-1.04c-5.64,4.16-8.96,8.62-16.02,14.33l2.35-1.76c-.6,1.18-4.18,3.73-6.28,5.8-.06-.5-1.55,.59-2.67,1.22,.32,.14-5.03,4.33-5.11,5.5l-3.41,2.24c-5.69,4.63-5.54,6.37-10.96,10.88,1.31-1.73-1.31,.14,2.05-3.19-1.75,1.53-3.42,2.86-3.26,3.12-1.21,.71-4.56,4.69-6.45,5.81-.67,1.16-1.56,2.19-2.61,3.03-.28,.08-.12-.16-.12-.16,.12,.16-2.95,2.92-.9,1.76-6.32,3.77-15.23,13.34-20.72,16.63-3.79,3.47-8.38,7.62-11.87,10.69,.14-.28-.12-.16,.56-.71-5.1,3.92-2.2,3.5-8,7.96-3.27,1.94,2.69-2.82,.76-1.49-1.66-.37-6.54,5.92-10.78,8.54l.85-.85c-3.14,2.11-6.6,6.41-11.29,10.35,0,0,.15-.28-.05-.19-2.72,3.28-8.58,8.67-12.92,12.69,1.03-1.61,1.84-1.97,.63-1.65-1.95,1.79,1.14,.16-2.74,3.74-1.49,.91-4.56,3.21-5.3,3.11l3.76-3.26c-2.43,1.12-4.87,4.25-6.94,5.88l.04-.47c-5.71,5.1-5.24,5.78-11.5,11.12l.81-.36c-2.85,3.56-3.14,2.11-6.1,5.5l-1.58,.26c-2.1,2.09-7.31,7.4-11.23,11.01,1.88-2.45,6.36-6.76,9.04-9.56-2.22,1.92-7.51,6.59-8.4,7.87,.86-.95,1.8-1.83,2.8-2.64-3.06,3.65-6.45,7.03-10.11,10.08-.27-1.9-11.79,9.7-15.82,11.53-7.44,7.23-15.7,13.23-24.73,21.27,4.06-1.86-2.62,2.33-1.23,2.83-.97,.98-2.02,1.88-3.14,2.69l-6.93,5c-1.77,1.04,1.83-1.97,1.44-2.01-4.71,3.96-2.31,1.28-5.61,3.69,.94-.2-1.18,1.9-3.94,4.07l4.12-2.79c-6.07,6.11-6.32,4.06-12.41,10.25l1.81-2.1c-3.2,3.1-12.4,10.75-15.02,14.38-.68,.4-1.71,.81-.28-.53-8.14,6.85-17.16,16.34-23.82,21.27l.4-.77c-1.44,1.37-2.23,2.71-4.31,4.11,.01-.19,.4-.76-.31-.17-1.78,1.95-3.69,3.77-5.72,5.45l1.46-1.74c-8.11,6.49-11.46,11.08-17.89,16.94-.59-.71-6.95,4.41-10.13,6.97l.02-.19c-9.19,7.82-14.99,14.01-23.2,21.62-5.9,3.78-18.03,15.09-26.84,21.97,1.4-.99,.26,.72-1.17,2.09-2.1,1.57-5.08,5.23-5.34,4.32l.72-.6c-2,.66-5.95,4.36-9.14,7.09l.2,1.29c-2.57,1.7-5.04,3.57-7.37,5.59l-1.9,1.64-.94,.84c-.28,.27-.57,.52-.88,.75-1.08,.9-2.3,1.62-3.61,2.12-2.41,.96-5.08,1.08-7.57,.35-1.78-.48-3.35-1.53-4.47-3-.47-.33-.92-.7-1.34-1.1-.43-.41-.76-.88-1.18-1.39s-.63-1.07-.96-1.58-.47-1.09-.73-1.61l.61-.04c-.2-.72-.22-1.44-.34-2.09v-1.95c.11-1.52,.2-2.95,.3-4.46,.19-2.97,.34-6.14,.53-10.68l.32,1.87c.32-5.11-1.36-6.54-1.14-11.26l.97-1.37c.49-8.9,1.77-17.91,1.45-26.78,.12,.15,.36,.43,.32,1.88,.26-4.2,1.5-16.22,.18-14.76,.8-.05,.59-9.2,.5-14.04l.54,.79c-.58-3.28-.79-6.61-.64-9.94,.16-1.34,.54-1.15,.29,.63,.56-4.47-.37-3.53,.24-8.95l.27,2.05c.27-2.27,.2-4.57-.21-6.82-.08-2.92,.63-8.75,1.2-9.41-.46-1.93-.55-3.93-.28-5.9,.22-.35,.29,.64,.33,1.14,.82-7.69,0-11.52,.82-16.79,.21-.06,.33-.43,.41-.87-.36,6.12-.66,11.06-.68,10.6,.55,.03,.91-4.91,1.44-.94-.19-4-.7-10.84-.17-15.65,.05-.22,.13-.43,.22-.63l.03,.5c.1-1.02,.13-2.04,.08-3.06,.16-1.54,.29-2.5,.38-3.98,.48-.55,.58-5.64,.72-8.13-.6,.17-.32-3.06-.98-.06,.06-.39,.05,.47-.02,2.12,0,.37-.02,.81,.01,1.09l-.05-.17c-.08,1.62-.18,3.74-.3,6.14-.28-2.24-.23-4.51,.15-6.73-.36-1.27-.63-2.7-.76-3.49,1.01-3.33,1.81-9.82,2.43-10.71,.04-7.55,.78-17.74-.08-22.58-.06-1.12,.17-2.23,.67-3.23,.05,1.24-.05,2.71,.07,3.39-.04-4.3,.6-12.7-.12-13.76,.66-5.39,.55,3.07,.83-4.35l.19,1.04c2.05-14.53-.66-23.85,1.84-39.94-.04,.65-.17,1.28-.38,1.89,1.72-18.48,1.45-38.11,3.58-56.24,.51-5.16,.05-5.75-.16-8.93l.7-1.09-.45-5.43c-.09-7.64,2.29-13.18,1.82-22.93l-.49,1.23c.27-3.47,.36-11.05,.82-10.44-.24-.82-.27-1.68-.08-2.52l.33-.1-.09-8.59c.6-6.61,1.26,1.12,1.86-8.55,.07-3.61-.39-10.3-.69-8.97-.1,1.45-.41,3.7-.75,3.79v-3.29c-.93-.65-1.8-3.24-2.93,4.8l.29,5.66-.58,1.8,.23-4.74c-.42,2.08-.46,4.22-.13,6.31-.37,.74-.58,1.55-.64,2.37l.62,5.57c-.42,.65-.62-2.52-1.03,1.18,.29,2.61,.98-2.47,1.05,1.89-.6,2.67-.91,1.87-.75,5.05-.28,.43-.4-.25-.43-1.51,.15,2.84-.29,7.45,.16,8.93-.71,2.78-.39,9.51-1.31,9.13,.29,2.51,.4,5.04,.34,7.57-.85-4.78-.6,9.66-1.72,8.35,.8,3.55-.26,12.64-.05,18.87-.11-.52-.15-1.06-.1-1.59-.28,3.48-.63,4.48-.95,6.71,.81,.49,.69,5.92,1.04,8.88-.99,4.21-.83-2.64-1.67-1.35,.68-.19,.26,7.46,.9,6.04-.68,3.24-.4,2.8-1.18,4.44,1,.62,0,3.05,.49,5.8-.77,4.7-1.03,1.16-1,6.36-.36,2.39-.52-2.24-.52-2.24Zm-5.08,123.54h0l.11-2.55c-.02,.54-.06,1.26-.11,2.55Zm-.56,10.38c.09-1.26,.18-2.83,.29-4.46,.22-.35,.41,.06,.32,1.11-.09-.63-.35,1.81-.6,3.35h0Zm5.32-21.71c.08,.82-.02,1.64-.29,2.41,.02-.78,.05-1.69,.09-2.88l-.05-.19c.13,.2,.21,.43,.25,.66h0Z"/><path class="e" d="M352.23,93.22c.96-.02,1.91-.04,2.9-.03-1.58-.14-2.82-.26-2.9,.03Z"/><path class="e" d="M359.31,93.61c-1.38-.22-2.77-.34-4.17-.37,1.38,.19,2.77,.32,4.17,.37Z"/><path class="e" d="M433.67,89.36l-.45,.58c3.04,.18,.06-.23,.45-.58Z"/></g><polygon class="e" points="78.67 428.08 80.38 427.04 77.06 428.79 78.67 428.08"/><path class="e" d="M285.38,233.69c0,.06,.09,0,.13,0,.03-.25,0-.35-.13,0Z"/><path class="e" d="M244.07,354.33c.35-.59,.78-1.13,1.26-1.62-.73,.44,1.11-5.45-1.26,1.62Z"/><path class="e" d="M221.09,436.39c.08-.28,.1-.44,.21-.78-.19,.35-.37,.7-.53,1.05v.73l.32-1Z"/><g><path class="d" d="M141.32,269.35h-31.27v15.42c-1.66-4.37-3.39-8.7-5.21-12.98l-1.03-2.44h-32.14v21.26h5.56v54.21h-5.56v21.27h31.63v-21.27h-4.8v-13.34c0-1.34,0-2.69-.02-4.05,2.12,6.03,4.5,12.43,7.07,19.05l7.77,20.36h23.18v-76.22h4.82v-21.26Zm-26.07,30.03c-.98-2.94-1.99-5.86-3.04-8.77h3.04v8.77Z"/><path class="d" d="M202.66,290.61h5.3v-21.26h-56.99v21.26h5.01l-8.39,54.21h-6.5v21.27h76.52v-21.27h-6.15l-8.81-54.21Zm-23.34,16.97l1.2,9.66h-2.34l1.15-9.66Zm-.03,37.23h-4.65l1.06-8.53h7.48l1.1,8.53h-5Z"/><path class="d" d="M255.33,330.5c-.43,7.13-1.31,10.65-1.98,12.36-.72,1.83-1.33,1.83-1.62,1.83-.49,0-1.39,0-2.04-3.02-.57-2.63-1.24-9.14-1.24-25.3-.13-7.45,.15-14.99,.84-22.39,.27-2.03,.76-3.06,1.46-3.06,1.07,0,3.28,2.66,3.97,12.7l.25,3.73h21.88v-37.99h-22.13v1.1c-2.74-1.64-5.71-2.47-8.9-2.47-8.43,.01-15.46,4.66-20.9,13.81-5.04,8.48-7.6,20.16-7.6,34.69,0,15.7,2.93,28.13,8.71,36.94,6.13,9.34,14.32,14.08,24.3,14.08,.14,0,.29,0,.43,0,7.43,0,14.5-3.16,19.4-8.65,5.15-5.54,8.28-13.24,9.31-22.89l.35-3.31-24.19-7.18-.3,5.03Z"/><path class="d" d="M359.7,290.61v-21.26h-77.04v21.26h6.7v54.21h-6.7v21.27h77.03v-21.27h-6.72v-54.21h6.74Zm-35.84,54.21h-5.37v-18.65h5.37v18.65Zm.01-39.92h-5.38v-14.28h5.38v14.28Z"/></g><path class="d" d="M424.11,282.17c-6.29-9.41-14.83-14.19-25.37-14.19s-19.13,4.79-25.38,14.23c-5.9,8.92-8.89,20.86-8.89,35.5s3.02,26.65,8.96,35.57c6.29,9.43,14.8,14.22,25.31,14.22h0c10.54,0,19.08-4.79,25.36-14.21,5.95-8.91,8.96-20.88,8.96-35.57s-3.02-26.63-8.96-35.54Zm-22.78,54.99c-.49,5.21-1.32,6.75-1.5,7.03-.18,.29-.52,.46-.86,.44h-.43c-.35,.02-.68-.16-.9-.51-.16-.25-.98-1.75-1.46-6.96-.37-4.11-.56-10.65-.56-19.43s.19-15.33,.56-19.44c.44-4.86,1.19-6.49,1.42-6.89,.08-.11,.19-.2,.3-.28,.64-.45,1.52-.33,2.01,.27,.25,.45,.98,2.15,1.43,6.92,.4,4.25,.6,10.79,.6,19.43s-.2,15.17-.6,19.42Z"/><g><path class="d" d="M41.58,456.88c-.43,7.13-1.32,10.65-1.98,12.36-.72,1.83-1.33,1.83-1.62,1.83-.49,0-1.39,0-2.04-3.02-.56-2.63-1.24-9.14-1.24-25.31-.14-7.45,.15-14.98,.85-22.39,.27-2.03,.76-3.06,1.45-3.06,1.08,0,3.3,2.65,3.97,12.7l.25,3.73h21.86v-37.99h-22.13v1.1c-2.73-1.64-5.7-2.46-8.88-2.46-8.43,0-15.46,4.66-20.9,13.81-5.04,8.48-7.6,20.16-7.6,34.69,0,15.7,2.93,28.13,8.71,36.94,6.13,9.34,14.32,14.08,24.29,14.08,.15,0,.29,0,.44,0,7.43,0,14.5-3.16,19.4-8.65,5.15-5.54,8.28-13.24,9.31-22.89l.35-3.31-24.19-7.19-.3,5.03Z"/><polygon class="d" points="69.02 416.99 77.6 416.99 77.6 471.19 69.02 471.19 69.02 492.46 115.85 492.46 115.85 471.19 106.71 471.19 106.71 416.99 115.85 416.99 115.85 395.73 69.02 395.73 69.02 416.99"/><path class="d" d="M158.26,411.19c-1.66-4.38-3.4-8.72-5.22-13.02l-1.03-2.44h-32.14v21.26h5.56v54.21h-5.56v21.27h31.65v-21.27h-4.81v-13.34c0-1.36,0-2.72-.02-4.09,2.12,6.04,4.5,12.45,7.08,19.09l7.77,20.36h23.18v-76.22h4.8v-21.26h-31.25v15.46Zm5.18,5.8v8.77c-.98-2.94-1.99-5.86-3.04-8.77h3.04Z"/><polygon class="d" points="237.66 471.19 230.37 471.19 230.37 453.77 242.15 453.77 242.15 432.51 230.37 432.51 230.37 416.99 237.6 416.99 237.6 431.93 261.4 431.93 261.4 395.73 193.48 395.73 193.48 416.99 201.2 416.99 201.2 471.19 193.48 471.19 193.48 492.46 261.46 492.46 261.46 455.52 237.66 455.52 237.66 471.19"/><path class="d" d="M311.47,413.36l-2.73-17.63h-41.94v21.26h6.04v54.21h-6.04v21.27h31.05v-21.27h-4.62v-25.09l8.69,46.36h13.61l3.53-19.09v19.09h39.6v-21.27h-5.8v-54.21h5.8v-21.26h-44.43l-2.75,17.63Zm12.27,34.62v23.21h-4.29l4.29-23.21Z"/><path class="d" d="M430.83,471.19l-8.81-54.21h5.31v-21.26h-57v21.26h5.01l-8.34,54.21h-6.5v21.27h76.46v-21.27h-6.15Zm-32.09-37.21l1.19,9.63h-2.34l1.15-9.63Zm-.1,37.21h-4.64l1.06-8.53h7.48l1.1,8.53h-5Z"/></g><path class="f" d="M75.67,362.08v-13.27h5.56v-62.21h-5.56v-13.26h25.49c7.29,17.21,13.25,34.96,17.83,53.08h1.11c-.58-13.04-.87-20.53-.86-22.47v-17.35h-5.19v-13.26h23.27v13.26h-4.82v76.22h-16.43l-6.79-17.78c-3.01-7.73-5.7-15.04-8.06-21.9-2.37-6.87-4.61-14.11-6.72-21.73h-1.18c.78,10.25,1.18,20.27,1.18,30.05v17.34h4.8v13.27h-23.63Z"/><path class="f" d="M145.1,362.08v-13.27h5.93l9.63-62.21h-5.67v-13.26h48.99v13.26h-6l10.11,62.21h5.55v13.27h-30.33v-13.27h5.55l-2.14-16.53h-14.53l-2.06,16.53h5.46v13.27h-30.47Zm28.57-40.85h11.37l-4.58-36.9h-2.41l-4.39,36.9Z"/><path class="f" d="M259.32,330.74l16.16,4.8c-.94,8.81-3.7,15.68-8.27,20.59-4.28,4.78-10.42,7.47-16.83,7.37-8.64,0-15.65-4.09-21.02-12.27-5.37-8.18-8.05-19.76-8.05-34.74,0-13.87,2.35-24.75,7.04-32.64,4.69-7.89,10.51-11.85,17.47-11.85,4.8,0,9.02,2.49,12.64,7.47h.25v-6.1h14.13v29.99h-14.14c-.75-10.95-3.4-16.43-7.96-16.43-3.05,0-4.86,2.2-5.43,6.61-.71,7.62-1,15.27-.86,22.91,0,13.26,.44,21.95,1.33,26.07,.88,4.12,2.87,6.18,5.95,6.18,2.43,0,4.21-1.47,5.35-4.37s1.88-7.51,2.25-13.57Z"/><path class="f" d="M286.66,362.08v-13.27h6.7v-62.21h-6.7v-13.26h31.34v13.26h-3.51v22.28h13.38v-22.28h-3.51v-13.26h31.34v13.26h-6.74v62.21h6.72v13.27h-31.34v-13.27h3.51v-26.65h-13.37v26.65h3.51v13.27h-31.34Z"/><g><path class="f" d="M398.74,363.5c-9.12,0-16.45-4.15-21.98-12.44-5.53-8.29-8.29-19.41-8.29-33.35s2.74-25,8.23-33.29c5.48-8.29,12.83-12.44,22.04-12.44s16.51,4.14,22.04,12.41c5.53,8.27,8.29,19.38,8.29,33.31,0,13.95-2.76,25.07-8.29,33.35-5.53,8.28-12.87,12.43-22.04,12.44Zm0-14.86c1.81,.11,3.53-.79,4.49-2.33,.97-1.54,1.68-4.46,2.09-8.77,.4-4.31,.62-10.89,.62-19.79s-.21-15.49-.62-19.8c-.4-4.31-1.11-7.23-2.09-8.77-1.75-2.47-5.18-3.05-7.65-1.3-.5,.36-.94,.8-1.3,1.3-1,1.54-1.69,4.47-2.09,8.77-.39,4.3-.58,10.91-.58,19.8s.19,15.49,.58,19.79c.39,4.3,1.09,7.23,2.09,8.77,.96,1.53,2.66,2.42,4.46,2.33Z"/><path class="f" d="M45.57,457.12l16.16,4.8c-.94,8.81-3.7,15.68-8.27,20.59-4.28,4.79-10.43,7.48-16.85,7.37-8.64,0-15.65-4.09-21.02-12.27-5.37-8.18-8.05-19.76-8.05-34.74,0-13.87,2.35-24.75,7.04-32.64,4.69-7.89,10.51-11.85,17.47-11.85,4.8,0,9.02,2.49,12.64,7.47h.24v-6.1h14.13v29.99h-14.12c-.73-10.95-3.39-16.43-7.96-16.43-3.04,0-4.85,2.2-5.42,6.61-.72,7.62-1.01,15.26-.87,22.91,0,13.26,.44,21.95,1.33,26.07,.88,4.12,2.87,6.18,5.95,6.18,2.43,0,4.21-1.47,5.35-4.37s1.88-7.51,2.25-13.57Z"/><path class="f" d="M73.02,488.46v-13.27h8.58v-62.21h-8.58v-13.26h38.82v13.26h-9.14v62.21h9.14v13.27h-38.82Z"/><path class="f" d="M123.86,488.46v-13.27h5.56v-62.21h-5.56v-13.26h25.49c7.29,17.21,13.25,34.96,17.83,53.08h1.11c-.58-13.04-.87-20.53-.86-22.47v-17.35h-5.18v-13.26h23.25v13.26h-4.8v76.22h-16.43l-6.79-17.78c-3.01-7.73-5.7-15.04-8.06-21.9-2.37-6.87-4.61-14.11-6.74-21.73h-1.18c.78,10.25,1.18,20.27,1.18,30.05v17.34h4.82v13.27h-23.65Z"/><path class="f" d="M197.48,488.46v-13.27h7.72v-62.21h-7.72v-13.26h59.92v28.2h-15.8v-14.94h-15.23v23.52h11.78v13.26h-11.78v25.43h15.29v-15.67h15.8v28.94h-59.98Z"/><path class="f" d="M270.8,488.46v-13.27h6.04v-62.21h-6.04v-13.26h34.51l5.41,34.92h1.48l5.45-34.92h37v13.26h-5.8v62.21h5.8v13.27h-31.6v-13.27h4.69v-63.56h-1.35l-14.19,76.83h-6.96l-14.41-76.83h-1.61v63.56h4.63v13.27h-23.05Z"/><path class="f" d="M364.52,488.46v-13.27h5.93l9.57-62.21h-5.67v-13.26h49v13.26h-6.02l10.11,62.21h5.55v13.27h-30.33v-13.27h5.55l-2.14-16.53h-14.53l-2.05,16.53h5.45v13.27h-30.41Zm28.57-40.85h11.37l-4.58-36.9h-2.4l-4.4,36.9Z"/></g></svg>