<?xml version="1.0" encoding="UTF-8"?><svg id="a" xmlns="http://www.w3.org/2000/svg" xmlns:xlink="http://www.w3.org/1999/xlink" viewBox="0 0 464.16 564.47"><defs><style>.c{fill:url(#b);}.d{fill:#fff;}.e,.f{fill:#1c8893;}.f{stroke:#fcfcfc;stroke-miterlimit:10;stroke-width:8px;}</style><linearGradient id="b" x1="485.96" y1="134.07" x2="767.59" y2="-28.52" gradientTransform="translate(-398.86 370.34) scale(1 -1)" gradientUnits="userSpaceOnUse"><stop offset="0" stop-color="#efb400"/><stop offset="1" stop-color="#ef9300"/></linearGradient></defs><path class="d" d="M65.29,467.47l-1.42-.07c.47,.07,.95,.09,1.42,.07Z"/><path class="d" d="M53.97,462.08l.1-.1c-.25-.23-.49-.47-.72-.72,.22,.22,.39,.52,.62,.82Z"/><g><path class="c" d="M147.43,128.67L47.69,417.25c-2.14,6.19,1.15,12.95,7.34,15.09,2.91,1.01,6.1,.84,8.89-.46L449.05,251.93c5.93-2.78,8.49-9.84,5.71-15.78-1.3-2.79-3.64-4.96-6.51-6.05L162.88,121.45c-6.13-2.34-12.99,.74-15.32,6.86-.04,.12-.09,.23-.13,.35Z"/><path class="d" d="M412.36,205.84l-1.06-.48c.34,.18,.7,.34,1.06,.48Z"/><path class="d" d="M393.17,210.32c-.33-.16-.69-.26-1.06-.27,.66,.2,1.19,.37,1.06,.27Z"/><path class="d" d="M408.51,216.83l-.9-.38c.28,.17,.59,.3,.9,.38Z"/><path class="d" d="M412.36,205.84l2.73,1.26c.26-.13-1.38-.69-2.73-1.26Z"/><path class="d" d="M391.36,198.53c.05,.12,.14,.23,.25,.3,0-.06-.11-.17-.25-.3Z"/><path class="d" d="M436.78,228.25l-.12-.06c-.78-.23-.34-.09,.12,.06Z"/><path class="d" d="M114.38,215.95c-1.41,4.05-.08,2.1,0,3.08-1.51,4.89-1.21,2.08-2.09,3.62-.85,3.07-1.14,5.57-1.94,7.81-.15,.14-.34,.56-.28,0-.63,3.35-3.25,9.47-3.94,13.39-.08,.16-.19,.31-.32,.43,.51-.5,.85-.49,1.01-.29-.61,1.81-.78,3.49-1.41,4.05,.23-.58,.35-1.2,.33-1.82l-.49,1.96c-1.15,1.52,.7-2.66,.29-2.8-1.1,3.77-2.13,8.25-3.27,11.07-.75,.4,2.11-6.71,.32-3.08l1.7-4.33c-2.03,3.06,.98-2.65-1,.12-2.15,5.73-1.96,6.57-4.11,12.28-.14,1.4,.6-.28,.45,1.12-2.28,8.39-3.6,5.96-4.96,12.26-.18,1.7,.31,2.56-1.54,6.7l-.11-1.7c-2,5.58-.22,3.5-2.66,9.22,.11-1.13,1.31-4.47,.95-3.65-1.8,3.63-.58,2.81-1.58,5.73l-.76,.41c-1.98,5.96-3.85,12.7-6.03,19.33,0-.43,.18-1.61-.52-.13-2.61,8.42-6.21,17.75-9.31,25.67l-.59,3.24c-.26,.71-.67,1.24-.49,.44-1.26,3.07,.24,.26-.09,1.83-.58,1.8-1.08,2.26-.85,1.08-1.51,5.66-4.57,16.03-7.09,21.68l.26-1.18c-1.76,4.47-.8,5.45-2.69,9.5l.2-.85c-3.61,9.76-6.93,20.78-10.22,28.04,.19,1.7-3.67,9.62-2.94,10.59-1.21,2.73-1.7,3.67-2.3,4.91-.14,.32-.3,.62-.46,1.03s-.33,.96-.53,1.58c-.12,.33-.2,.68-.24,1.03-.05,.37-.11,.79-.18,1.23-.04,.49-.04,.99,0,1.48v.85c0,.29,.09,.59,.14,.89,.2,1.12,.65,2.18,1.3,3.11l1.01,1.35c.4,.45,.85,.95,1.34,1.55l-.34,.4c1.08,.96,2.3,1.75,3.62,2.35l.85,.85c.3,.26,.61,.51,.94,.74,.96,.35,1.95,.59,2.96,.72-1.19-.27-2.42-.85-2.18-.97,.55,.19,1.16,.27,1.75,.43,.62,.12,1.24,.21,1.87,.26,1.22,.1,2.45,.05,3.65-.14l.85-.12c.26-.06,.49-.14,.72-.2l1.24-.32c.66-.18,1-.26,1.06-.21l8.52-4.45c-.1,.28-1.52,1.02-2.61,1.7,4.4-2.65,1.07,.11,5.11-2.32-.62,.15,.17-.43,.22-.57,3.62-1.35,7.16-2.94,10.58-4.74l-.53,.65c6.47-2.92,13.49-6.49,20.71-9.86-2.66,1.06-2.33,.21-.24-.85l1.08,.11c1.23-.95-2.3,.85,.33-.85,2.73-1.2,2.08-.27,.6,.61l3.2-1.7c.26,.07-.47,.5-.58,.78,1.2-.94,5.89-2.14,7.58-3.59l.26,.06c7.22-3.36,10.42-5.07,16.29-7.84-.09-.49,2.26-1.46,3.84-2.64,4.39-1.87,9.37-3.78,14.54-6.25,3.56-1.92,.89-.85,2.42-1.89,.45,.27,5.64-2.2,3.07-.66,6.22-2.98,7.95-3.81,15.7-7.82-.93,.24-1.92,.61-1.49,.25,1.41-.73,3.34-1.35,3.23-1.07l-.37,.22c8.6-4.74,21.02-8.42,27.71-12.55l-.38,.22,7.13-3.85c3.41-1.51-1.88,1.24,.72,.32,7.6-4.35,12.54-5.74,18.84-9.22,5.59-1.18,17.84-8.43,24.99-10.87l-.52-.09c1.64-1.09,2.2-.85,3.53-1.38-.28-.13-2.03,.65-1,0,14.73-7.28,30.92-13.96,46.31-20.84,5.61-2.56,2.5-2.9,9.85-5.54l-1.75,1.45c10.98-5.88,23.05-10.75,33.84-16.42-.48,.45-1.04,.82-1.64,1.09,2.5-.72,8.63-4.01,8.52-4.33,1.7-.78,.53,.09,1.65-.26,2.44-.85,5.65-3.21,7.06-3.41,.24,0-.6,.43-1.01,.66,1.44-.89,7.12-3.27,5.46-3.01,4.26-1.7,7.83-3.89,11.25-5.19,1.93-1.48,7.2-3.08,7.56-4.07,0,.85,7.52-2.83,9.98-4.39-.78,.62,2.38-.85,1.49-.07,2.98-1.41,5.66-2.82,4.97-2.93,5.89-1.7,10.75-5.84,14.34-6.22,8.7-4.52,16.8-8.61,24.7-12.51,0,.85-8.79,4.2-8.11,4.77,3.72-1.92,6.6-3.53,9.5-5.11,1.45-.78,2.9-1.54,4.47-2.32l2.44-1.18,.65-.3,.72-.39c.51-.25,1-.53,1.46-.85,.98-.7,.77-.43,.22,.11-.31,.3-.65,.58-1.02,.81l-.85,.61c4.24-2.21,7.06-6.42,7.5-11.18,.42-4.46-1.46-8.83-5.01-11.58,.53,.3,1.03,.67,1.47,1.09l-1.05-.91-.49-.44c-.16-.13-.32-.24-.49-.35-.62-.41-1.08-.65-1.09-.44l1.41,.85c.42,.54,.26,.58-.18,.35s-1.27-.61-2.15-.97l-1.39-.46c-.46-.16-.85-.23-1.24-.33-.45-.14-.92-.22-1.39-.26,2.67-.05-6.81-2.84-2.63-2.62-.93-.28-2.11-.55-1.99-.26-1.31-.57-1.7-.85-.24-.6-4.97-1.7-3.36-.68-7.79-2.38,.08-.15,1,.13,1.52,.12-2.9-.61-5.73-1.51-8.45-2.67,.26,0-.12-.3,1,.13-6.46-2.4-11.3-3.36-18.26-6.35,2.35,.1-2.32-1.14-2.46-1.88l-3.88-1.27,1.42,.85c-3.33-1.28-6.44-1.97-9.22-3.25l2.56,.7-6.28-2.32,3.41,1.58c-3.48-.98,.08,.85-4.26-.96,.92,.28-3.33-1.28-4.93-2.29h0c-2.02-.46-4-1.12-5.89-1.97-.57-.43,.76-.46,.39-.74-1.81-.13-7.85-2.84-10.11-3.09,.73,.14,.85-.16,.68-.31l-1.52-.12c-1.49-.72-1.7-.85-1.35-1.01-4.62-1.85,1.18,1.31-4.2-1.11,.4,.07,.79,.16,1.18,.27-5.47-2.27-10.79-3.82-15.79-5.96-1.28-1.18,4.5,1.54,2.97,.38-7.38-2.68-15.46-5.06-22.49-7.9l1.29,.57c-1.3,.47-5.11-2.43-8.86-3.41,.9,.27,1.33,0,1.06,0-4.8-1.98-10.01-3.58-17.47-6.11l.99,.13c-2.79-1.29-7.49-2.98-10.54-4.26-1-.14-2.76-.85-1.81-.12-9.06-4.86-18.44-6.26-26.5-10.51,1.01,.38,2.49,.73,1.7,.43l-7.28-2.56c.43,.59,.85,.58,2.27,1.45-1.67-.33-3.3-.8-4.88-1.41,3.34,.99,.2-.6-1.12-1.35,.2,.2-.33,.14-.26,.31-3.52-2.09-.92,.5-5.89-1.9l.34-.09c-1.96-.64-3.82-1.06-5.88-1.9-.7-.76,2.12,.58,2.38,.28-2.92-1.09-6.06-1.39-8.52-2.81,1.29,.35,3.07,1.03,4.34,1.38-1.63-1-3.36-1.83-5.16-2.49l.2,.09-4.87-2.12,1.21,.61c-4.07-.28-7.5-2.62-12.69-3.76,5.03,1.12,.94-.1,1.49-.44-1.2-.61-3.06-1.48-2.46-1.41-2.47-.49-3.76-1.78-7.25-2.46-.09-.21-2.48-.96-1.81-1.15-3.07-1.03,.61,.55,.28,.64-4.85-1.24-10.69-4.8-17.66-6.63-5.89-1.9-7.15-1.78-12.6-3.56-1.7-.93,1.7,0,1.7,0-2.54-1.2-5.16-2.2-7.85-3,.61,.08,.09-.26-.69-.75-2.22-.8-1.7,0-4.51-1.33,.82-.01,1.63,.06,2.44,.21-2.65-.85-5.33-1.53-8.07-2.42-.6-.55,1.78,.2,2.79,.39-1.53-.51-3.51-1.2-5.25-1.75-.8-.27-1.62-.48-2.46-.61-.51-.1-1.04-.1-1.55,0,.36,.06,.71,.15,1.06,.26,.35,.09,.69,.2,1.02,.34-.58-.19-.72-.27-.59-.37,.32-.11,.67-.11,1,0,2.82,.62,3.7,1.57,3.82,1.77l-1.95-.63c1.62,1.7,7.75,2.79,11.58,4.3l-1.86,.05,4.16,.95c.78,.49,1.21,1.08-.73,.46,2.64,1.38,2.56,.7,4.77,1.97,.24,.15,.11,.14-.14,.08l2.78,.85c-.58-.06,.27,.64-1.35-.09,4.71,2.22,8.01,2.48,9.64,3.67l-.42-.11c6.81,2.33,.85-.24,6.1,1.12l2.94,2.49,.85-.23c.69,.28,2.04,.85,1.7,.94,2.71,.65-.36-.38,1.26-.13,3.17,1.7,9.28,3.3,9.74,4.36,1.34,.09-3.08-1.5,.58-.4,.7,1.23,4.17,1.43,7.08,2.97-1.1,.08-3.9-1.25-1,.29,2.12,0,5.89,2.43,8.52,3.26,.34-.53,5.69,1.89,10.08,3.34-.34,.09,8.01,3.41,11.92,5.11l-.16,.05c1-.29,5.11,1.41,8.17,2.43-.25,.31-.85,.24-2.56-.23l2.84,1.08c1.21,.18,2.39,.49,3.53,.94l-.85,.16c3.78,1.41,7.8,2.38,12.55,4.52,.43-.3-3.41-2.61,1.81-.92,.11,.29,.15,.74-1.23,.32,.86,.21,1.69,.49,2.5,.85l-2.2-.41c2.15,1,1.28,.13,3.03,.85-.15,.31,1.23,.72,.85,.85-.72-.33-1.46-.62-2.22-.85,1.74,.67,3.42,1.5,5.02,2.46-.11-.25,.16-.43,1.64,.09,3.78,1.41,1.15,.85,3.29,1.87,1,.14,3.32,1.28,3.56,.85,.61,.2,1.16,.55,1.61,1,2.03,.54,9.15,3.41,7.14,2.08l-.49-.22,.33,.1h0c6.57,1.97,13.2,5.32,19.59,7.55l-.07,.15c3.86,1.26,8.52,3.11,11.32,3.8,1.12,.43,2.56,1.29,1.98,1.3,2.55,.73,5.03,1.66,7.43,2.79-3.01-.85,.91,.63-3.07-.94,3.72,1.57,4.48,2.15,8.69,3.26-1.53-.13,2.64,1.58,4.48,2.15l-2.56-1.29c2.04,.71,3.78,1.41,5.55,2.13l-1.17,.16c7.46,3.58,14.33,4.2,19.78,7.51,2.18,.4-4.09-1.86-2.1-1.59,3.52,1.41,6.92,3.59,8.03,4.01,4.75,2.14,4.83,.95,9.84,3.08-.58-.43-1-1.18,2.87,.09,3.52,1.42,4.05,2.45,1.76,1.75-.85-.31-1.25-.53-1.18-.57-1.18-.37-2.71-.85-1.39-.13h.54c1.7,.85,6.57,2.7,5.31,2.56,2.75,.85,1.26,.13-.69-.72,4.45,2,7.11,2.72,11.73,4.68-.71-.39-1.31-.85-.57-.59,6.81,2.84,3.17,.79,7.85,2.48,2.56,1.3-1.21,.33,3.57,1.87,2.79,1.29,.42,.73-.78,.45,4.41,1.26,7.9,3.28,10.31,4.26l-2.31-.71c1.38,.43,2.48,.85,3.6,1.28l-1.14-.85c1.29,.57,2.41,1,2.33,1.14,1.45,.27-.85-1.02,2.03-.33,1.7,.85,5.43,1.83,5.85,2.56-5.47-2.27,.43,.74-4.26-.96,1.13,.36,2.25,.79,3.33,1.28,.17,.13-.23,0-.6-.08,5.11,2.46,2.66,.36,8.14,2.46-.81,0,1.06,1.02,1.98,1.3-1.11-.43-1.32-.65-1-.69,.29-.01,.57,0,.85,.07,.45,.06,.9,.17,1.33,.32,.36,.2,.68,.37,.97,.52s.5,.35,.72,.48c.36,.21,.71,.44,1.04,.7l.79,.58c.27,.26,.52,.54,.73,.85l-.58-.81-.7-.72c.55,.23,1.03,.6,1.39,1.08,.33,.33,.61,.69,.85,1.09,.32,.46,.59,.96,.81,1.47-.09,.14-.27-.37-.54-.75s-.45-.71-.28-.32c.46,.54,.8,1.17,1,1.86,.2,.76,.3,1.53,.3,2.32-.03,1.71-.3,3.41-.79,5.04-.85,1.41-.6-.07-1.31,1.11-.23,.41-.44,.77-.64,1.09-.21,.27-.44,.53-.68,.77-.39,.4-.84,.73-1.33,1l-.33,.2-.37,.17c-.26,.11-.52,.24-.85,.38s-.71,.33-1.11,.55-.9,.45-1.43,.74c1.42-.21,1.6-.41-1.29,1.38l3.51-1.8c.27-.14,.53-.29,.78-.45l.73-.45c.46-.33,.89-.69,1.31-1.06-.48,.56-1.03,1.06-1.63,1.49-.3,.25-.62,.48-.95,.69l-1.08,.66c.53-.26,1.12-.51,1.59-.8s.93-.56,1.34-.85,.74-.66,1.06-.93,.55-.6,.78-.85c-.22,.34-.45,.67-.7,.98-.11,.11-.21,.23-.29,.36-.04,.09,.26,0,.77-.26-.32,.21-.67,.37-.98,.59-.3,.23-.61,.43-.95,.6-.33,.19-.65,.38-.97,.59s-.72,.4-1.07,.6c-1.52,.9-3.12,1.66-4.78,2.28l-.32-.96c-5.31,1.98-8.87,4.72-15.64,7.6l2.21-.85c-.72,.78-4.08,1.98-6.17,3.13,.06-.4-1.34,.12-2.35,.36,.22,.18-4.87,2.26-5.2,3.14l-3.15,.99c-5.45,2.34-5.72,3.73-10.94,6.04,1.41-1.06-1.05-.18,2.3-2.03-1.7,.8-3.3,1.46-3.23,1.7-1.1,.28-4.58,2.64-6.3,3.09-.78,.76-1.7,1.36-2.7,1.78-.24,0-.06-.15-.06-.15,.06,.15-2.94,1.62-1.09,1.17-5.75,1.53-14.8,7-19.8,8.35-3.71,1.86-8.2,4.07-11.6,5.69,.17-.19-.06-.15,.6-.43-4.84,1.92-2.49,2.23-7.99,4.42-2.97,.78,2.72-1.6,.92-.99-1.21-.66-6.4,3.16-10.28,4.26l.85-.47c-2.91,.95-6.55,3.53-11.07,5.55,0,0,.18-.19,0-.16-2.84,1.95-8.59,4.85-12.86,7.01,1.16-1.02,1.87-1.12,.85-1.14-1.92,.96,.85,.37-2.96,2.3-1.36,.37-4.26,1.49-4.81,1.24l3.65-1.7c-2.14,.33-4.73,2.23-6.7,3.04l.14-.36c-5.57,2.7-5.36,3.34-11.4,6.11l.71-.1c-3.01,2.14-2.91,.95-5.96,2.93l-1.29-.14c-2.1,1.16-7.32,4.14-11.17,6.08,2-1.49,6.45-3.85,9.15-5.43-2.15,1-7.3,3.47-8.28,4.26,.88-.55,1.8-1.03,2.76-1.43-3.19,2.16-6.57,4.04-10.09,5.6,.21-1.53-11.32,4.93-14.86,5.47-7.38,3.98-15.14,6.81-23.95,11.07,3.57-.55-2.56,1.23-1.58,1.92-.97,.55-1.99,1.02-3.04,1.4l-6.5,2.35c-1.61,.42,1.86-1.12,1.57-1.24-4.54,2.04-2.08,.49-5.18,1.63,.78,.05-1.34,1.22-3.97,2.29l3.82-1.26c-6.07,3.41-5.82,1.75-11.92,5.22l1.87-1.23c-3.18,1.7-12.03,5.61-14.87,7.86-.62,.16-1.51,.26-.1-.48-7.84,3.53-16.97,8.91-23.23,11.27l.49-.51c-1.42,.75-2.33,1.62-4.26,2.24,.05-.14,.48-.5-.2-.2-1.81,1.12-3.7,2.11-5.66,2.97l1.52-1.03c-7.74,3.25-11.37,6.08-17.66,9.22-.3-.68-6.38,1.89-9.42,3.18l.06-.14c-8.88,4.05-14.76,7.58-22.83,11.68-5.43,1.64-17.37,7.74-25.74,11.15,1.31-.46,.04,.62-1.37,1.37-1.98,.76-5.11,2.95-5.11,2.18l.69-.31c-1.7,.07-5.6,2.07-8.68,3.49l-.13,1.05c-2.38,.75-4.71,1.66-6.97,2.72l-1.84,.85-.92,.44c-.28,.15-.56,.28-.85,.39-1.04,.46-2.15,.75-3.28,.85-2.09,.21-4.19-.28-5.96-1.41-1.28-.77-2.27-1.93-2.81-3.32-.3-.36-.56-.75-.8-1.15-.25-.42-.4-.85-.61-1.35s-.26-.97-.4-1.44-.13-.95-.21-1.41l.49,.1c0-.6,.14-1.17,.2-1.7l.44-1.52c.41-1.16,.8-2.25,1.21-3.41,.8-2.27,1.63-4.7,2.78-8.19l-.16,1.52c1.38-3.9,.39-5.39,1.61-9.01l1.06-.85c2.35-6.81,5.34-13.54,7.06-20.51,.06,.14,.19,.42-.17,1.53,1.13-3.21,4.76-12.28,3.41-11.44,.63,.14,2.5-7.03,3.5-10.81l.25,.73c.27-2.68,.85-5.32,1.7-7.87,.42-1,.67-.78,.09,.55,1.42-3.36,.49-2.83,2.17-6.91l-.25,1.65c.71-1.71,1.17-3.51,1.35-5.35,.59-2.29,2.43-6.67,3.01-7.05,.07-1.6,.44-3.18,1.09-4.65,.25-.22,.09,.56,0,.96,2.34-5.8,2.56-8.96,4.35-12.88,.18,0,.35-.26,.51-.59-1.64,4.68-2.96,8.46-2.88,8.09,.42,.14,1.8-3.62,1.33-.41,.74-3.15,1.86-8.58,3.33-12.21,.09-.16,.2-.31,.32-.44l-.09,.4c.3-.77,.55-1.56,.74-2.36,.47-1.16,.78-1.88,1.18-3.01,.49-.32,1.7-4.26,2.36-6.17-.5,0,.43-2.45-.75-.26,.14-.29-.07,.37-.49,1.64-.09,.29-.2,.62-.23,.85v-.14c-.42,1.24-.97,2.87-1.59,4.71,.28-1.8,.82-3.56,1.61-5.2,0-1.06,.11-2.24,.18-2.89,1.52-2.37,3.59-7.24,4.26-7.79,1.7-5.86,4.53-13.63,4.94-17.58,.2-.88,.63-1.7,1.23-2.37-.24,.97-.64,2.1-.7,2.65,.92-3.36,3.28-9.74,2.96-10.73,1.7-4.05-.26,2.51,1.61-3.2l-.09,.85c4.81-10.85,4.77-18.69,10.27-30.66-.18,.49-.42,.96-.72,1.39,5.43-13.99,9.56-29.32,15.24-42.95,1.54-3.9,1.31-4.46,1.86-6.98l.78-.69,.85-4.33c1.62-5.96,4.7-9.74,6.49-17.43l-.66,.85c.98-2.64,2.73-8.52,2.95-7.94,0-.69,.16-1.37,.49-1.98h.28l1.83-6.7c1.93-5.01,.73,1.15,3.34-6.24,.85-2.79,1.98-8.1,1.45-7.13-.4,1.11-1.14,2.79-1.42,2.79l.73-2.56c-.59-.72-.69-2.92-3.35,3.08l-1.03,4.46-.85,1.27,1.23-3.64c-.78,1.53-1.29,3.18-1.5,4.88-.45,.5-.8,1.07-1.02,1.7l-.75,4.47c-.47,.42,.08-2.1-1.06,.69-.35,2.1,1.31-1.7,.4,1.7-1.06,1.94-1.12,1.25-1.7,3.76-.32,.27-.26-.28,0-1.27-.51,2.24-1.87,5.73-1.86,6.98-1.17,2-2.41,7.31-3.04,6.81-.33,2.02-.8,4.01-1.41,5.96,.4-3.91-2.61,7.38-3.19,6.12-.16,2.94-3,9.78-4.22,14.67,.03-.43,.12-.86,.27-1.26-.99,2.65-1.48,3.35-2.22,5.01,.52,.56-.78,4.76-1.16,7.14-1.7,3.06-.06-2.24-1-1.42,.57,0-1.45,5.86-.64,4.9-1.24,2.37-.93,2.09-1.9,3.19,.64,.71-.67,2.38-.9,4.62-1.64,3.48-1.06,.67-2.19,4.73-.81,1.78,.09-1.86,.09-1.86Zm-31.3,94.97h0l.65-1.96c-.14,.42-.32,.97-.65,1.96Zm-2.73,7.95c.35-.96,.77-2.16,1.21-3.41,.25-.22,.31,.14,0,.94,.07-.51-.67,1.33-1.21,2.47h0Zm8.94-15.71c-.12,.65-.38,1.27-.76,1.81,.19-.6,.41-1.3,.71-2.22v-.16c.05,.19,.07,.38,.05,.57h0Z"/><path class="d" d="M411.12,205.27l.19,.09c-.13-.06-.25-.14-.37-.22,.12,.08,.11,.14,.19,.14Z"/><path class="d" d="M385.65,205.47c.75,.2,1.49,.39,2.27,.62-1.2-.46-2.14-.83-2.27-.62Z"/><path class="d" d="M391.08,207.34c-1.02-.48-2.08-.88-3.16-1.21,1.03,.46,2.09,.86,3.16,1.21Z"/><path class="d" d="M449.86,220.5l-.48,.35c2.33,.81,.1-.17,.48-.35Z"/></g><polygon class="d" points="78.67 458.22 80.38 457.18 77.06 458.93 78.67 458.22"/><g><path class="d" d="M188.94,198.26s.06,0,.08,0c.02-.17,0-.23-.08,0Z"/><path class="d" d="M283.19,380.34c2.96-.92-4.3,2.6,.08,1.06-.46,.02,3.51-2.43-.08-1.06Z"/><path class="d" d="M283.25,381.4h0l.45-.17-.45,.17Z"/><path class="d" d="M161.96,277.02c.23-.39,.51-.74,.83-1.06-.48,.29,.73-3.56-.83,1.06Z"/><path class="d" d="M146.96,330.6c.05-.18,.07-.29,.14-.51-.12,.23-.24,.45-.35,.68v.48l.21-.65Z"/><polygon class="d" points="305.65 199.03 304.1 198.19 303.19 198.2 305.65 199.03"/><path class="f" d="M52.03,282.08v-8.66h3.63v-40.61h-3.63v-8.66h16.64c4.76,11.24,8.65,22.82,11.64,34.65h.73c-.38-8.52-.57-13.41-.56-14.67v-11.33h-3.39v-8.66h15.19v8.66h-3.14v49.76h-10.73l-4.43-11.61c-1.96-5.05-3.72-9.82-5.26-14.3-1.55-4.48-3.01-9.21-4.39-14.18h-.77c.51,6.69,.77,13.23,.77,19.62v11.32h3.14v8.66h-15.43Z"/><path class="f" d="M97.35,282.08v-8.66h3.87l6.29-40.61h-3.7v-8.66h31.98v8.66h-3.92l6.6,40.61h3.62v8.66h-19.8v-8.66h3.62l-1.39-10.79h-9.49l-1.34,10.79h3.56v8.66h-19.89Zm18.66-26.67h7.43l-2.99-24.09h-1.58l-2.86,24.09Z"/><path class="f" d="M171.92,261.62l10.55,3.14c-.62,5.75-2.41,10.23-5.4,13.44-2.79,3.12-6.8,4.88-10.99,4.81-5.64,0-10.22-2.67-13.72-8.01-3.5-5.34-5.26-12.9-5.26-22.68,0-9.05,1.53-16.16,4.6-21.31,3.06-5.15,6.86-7.73,11.4-7.74,3.14,0,5.89,1.63,8.25,4.88h.17v-3.99h9.22v19.58h-9.23c-.49-7.15-2.22-10.73-5.2-10.73-1.99,0-3.17,1.44-3.55,4.32-.46,4.97-.65,9.97-.56,14.96,0,8.66,.29,14.33,.87,17.02,.58,2.69,1.87,4.03,3.89,4.03,1.58,0,2.75-.96,3.49-2.85s1.23-4.9,1.47-8.86Z"/><path class="f" d="M189.77,282.08v-8.66h4.37v-40.61h-4.37v-8.66h20.46v8.66h-2.29v14.55h8.74v-14.55h-2.29v-8.66h20.46v8.66h-4.4v40.61h4.39v8.66h-20.46v-8.66h2.29v-17.4h-8.73v17.4h2.29v8.66h-20.46Z"/><path class="f" d="M262.95,283.01c-5.96,0-10.74-2.71-14.35-8.12s-5.41-12.67-5.41-21.77,1.79-16.32,5.37-21.73c3.58-5.41,8.38-8.12,14.39-8.12s10.78,2.7,14.39,8.1c3.61,5.4,5.41,12.65,5.41,21.75,0,9.11-1.8,16.37-5.41,21.77-3.61,5.41-8.4,8.11-14.39,8.12Zm0-9.7c1.18,.07,2.3-.51,2.93-1.52,.64-1.01,1.1-2.91,1.36-5.73,.26-2.81,.4-7.11,.4-12.92s-.14-10.12-.4-12.93c-.26-2.81-.73-4.72-1.36-5.73-1.14-1.61-3.38-1.99-4.99-.85-.33,.23-.62,.52-.85,.85-.65,1.01-1.11,2.92-1.36,5.73-.26,2.81-.38,7.12-.38,12.93s.12,10.12,.38,12.92c.26,2.81,.71,4.72,1.36,5.73,.62,1,1.74,1.58,2.91,1.52Z"/><path class="f" d="M32.37,344.13l10.55,3.14c-.62,5.75-2.41,10.23-5.4,13.44-2.79,3.13-6.81,4.88-11,4.81-5.64,0-10.22-2.67-13.72-8.01-3.5-5.34-5.26-12.9-5.26-22.68,0-9.05,1.53-16.16,4.6-21.31,3.06-5.15,6.86-7.73,11.4-7.74,3.14,0,5.89,1.63,8.25,4.88h.16v-3.99h9.22v19.58h-9.22c-.48-7.15-2.21-10.73-5.2-10.73-1.99,0-3.17,1.44-3.54,4.32-.47,4.97-.66,9.97-.57,14.96,0,8.66,.29,14.33,.87,17.02,.58,2.69,1.87,4.03,3.89,4.03,1.58,0,2.75-.96,3.49-2.85s1.23-4.9,1.47-8.86Z"/><path class="f" d="M50.29,364.59v-8.66h5.6v-40.61h-5.6v-8.66h25.35v8.66h-5.97v40.61h5.97v8.66h-25.35Z"/><path class="f" d="M83.49,364.59v-8.66h3.63v-40.61h-3.63v-8.66h16.64c4.76,11.24,8.65,22.82,11.64,34.65h.73c-.38-8.52-.57-13.41-.56-14.67v-11.33h-3.38v-8.66h15.18v8.66h-3.14v49.76h-10.73l-4.43-11.61c-1.96-5.05-3.72-9.82-5.26-14.3-1.55-4.48-3.01-9.21-4.4-14.18h-.77c.51,6.69,.77,13.23,.77,19.62v11.32h3.14v8.66h-15.44Z"/><path class="f" d="M131.55,364.59v-8.66h5.04v-40.61h-5.04v-8.66h39.12v18.41h-10.31v-9.75h-9.94v15.36h7.69v8.66h-7.69v16.6h9.98v-10.23h10.31v18.89h-39.16Z"/><path class="f" d="M179.41,364.59v-8.66h3.94v-40.61h-3.94v-8.66h22.53l3.53,22.8h.97l3.56-22.8h24.16v8.66h-3.79v40.61h3.79v8.66h-20.63v-8.66h3.06v-41.49h-.88l-9.27,50.16h-4.55l-9.41-50.16h-1.05v41.49h3.02v8.66h-15.05Z"/><path class="f" d="M240.6,364.59v-8.66h3.87l6.25-40.61h-3.7v-8.66h31.99v8.66h-3.93l6.6,40.61h3.62v8.66h-19.8v-8.66h3.62l-1.39-10.79h-9.49l-1.34,10.79h3.56v8.66h-19.85Zm18.66-26.67h7.43l-2.99-24.09h-1.57l-2.87,24.09Z"/><path class="e" d="M52.03,282.08v-8.66h3.63v-40.61h-3.63v-8.66h16.64c4.76,11.24,8.65,22.82,11.64,34.65h.73c-.38-8.52-.57-13.41-.56-14.67v-11.33h-3.39v-8.66h15.19v8.66h-3.14v49.76h-10.73l-4.43-11.61c-1.96-5.05-3.72-9.82-5.26-14.3-1.55-4.48-3.01-9.21-4.39-14.18h-.77c.51,6.69,.77,13.23,.77,19.62v11.32h3.14v8.66h-15.43Z"/><path class="e" d="M97.35,282.08v-8.66h3.87l6.29-40.61h-3.7v-8.66h31.98v8.66h-3.92l6.6,40.61h3.62v8.66h-19.8v-8.66h3.62l-1.39-10.79h-9.49l-1.34,10.79h3.56v8.66h-19.89Zm18.66-26.67h7.43l-2.99-24.09h-1.58l-2.86,24.09Z"/><path class="e" d="M171.92,261.62l10.55,3.14c-.62,5.75-2.41,10.23-5.4,13.44-2.79,3.12-6.8,4.88-10.99,4.81-5.64,0-10.22-2.67-13.72-8.01-3.5-5.34-5.26-12.9-5.26-22.68,0-9.05,1.53-16.16,4.6-21.31,3.06-5.15,6.86-7.73,11.4-7.74,3.14,0,5.89,1.63,8.25,4.88h.17v-3.99h9.22v19.58h-9.23c-.49-7.15-2.22-10.73-5.2-10.73-1.99,0-3.17,1.44-3.55,4.32-.46,4.97-.65,9.97-.56,14.96,0,8.66,.29,14.33,.87,17.02,.58,2.69,1.87,4.03,3.89,4.03,1.58,0,2.75-.96,3.49-2.85s1.23-4.9,1.47-8.86Z"/><path class="e" d="M189.77,282.08v-8.66h4.37v-40.61h-4.37v-8.66h20.46v8.66h-2.29v14.55h8.74v-14.55h-2.29v-8.66h20.46v8.66h-4.4v40.61h4.39v8.66h-20.46v-8.66h2.29v-17.4h-8.73v17.4h2.29v8.66h-20.46Z"/><path class="e" d="M262.95,283.01c-5.96,0-10.74-2.71-14.35-8.12s-5.41-12.67-5.41-21.77,1.79-16.32,5.37-21.73c3.58-5.41,8.38-8.12,14.39-8.12s10.78,2.7,14.39,8.1c3.61,5.4,5.41,12.65,5.41,21.75,0,9.11-1.8,16.37-5.41,21.77-3.61,5.41-8.4,8.11-14.39,8.12Zm0-9.7c1.18,.07,2.3-.51,2.93-1.52,.64-1.01,1.1-2.91,1.36-5.73,.26-2.81,.4-7.11,.4-12.92s-.14-10.12-.4-12.93c-.26-2.81-.73-4.72-1.36-5.73-1.14-1.61-3.38-1.99-4.99-.85-.33,.23-.62,.52-.85,.85-.65,1.01-1.11,2.92-1.36,5.73-.26,2.81-.38,7.12-.38,12.93s.12,10.12,.38,12.92c.26,2.81,.71,4.72,1.36,5.73,.62,1,1.74,1.58,2.91,1.52Z"/><path class="e" d="M32.37,344.13l10.55,3.14c-.62,5.75-2.41,10.23-5.4,13.44-2.79,3.13-6.81,4.88-11,4.81-5.64,0-10.22-2.67-13.72-8.01-3.5-5.34-5.26-12.9-5.26-22.68,0-9.05,1.53-16.16,4.6-21.31,3.06-5.15,6.86-7.73,11.4-7.74,3.14,0,5.89,1.63,8.25,4.88h.16v-3.99h9.22v19.58h-9.22c-.48-7.15-2.21-10.73-5.2-10.73-1.99,0-3.17,1.44-3.54,4.32-.47,4.97-.66,9.97-.57,14.96,0,8.66,.29,14.33,.87,17.02,.58,2.69,1.87,4.03,3.89,4.03,1.58,0,2.75-.96,3.49-2.85s1.23-4.9,1.47-8.86Z"/><path class="e" d="M50.29,364.59v-8.66h5.6v-40.61h-5.6v-8.66h25.35v8.66h-5.97v40.61h5.97v8.66h-25.35Z"/><path class="e" d="M83.49,364.59v-8.66h3.63v-40.61h-3.63v-8.66h16.64c4.76,11.24,8.65,22.82,11.64,34.65h.73c-.38-8.52-.57-13.41-.56-14.67v-11.33h-3.38v-8.66h15.18v8.66h-3.14v49.76h-10.73l-4.43-11.61c-1.96-5.05-3.72-9.82-5.26-14.3-1.55-4.48-3.01-9.21-4.4-14.18h-.77c.51,6.69,.77,13.23,.77,19.62v11.32h3.14v8.66h-15.44Z"/><path class="e" d="M131.55,364.59v-8.66h5.04v-40.61h-5.04v-8.66h39.12v18.41h-10.31v-9.75h-9.94v15.36h7.69v8.66h-7.69v16.6h9.98v-10.23h10.31v18.89h-39.16Z"/><path class="e" d="M179.41,364.59v-8.66h3.94v-40.61h-3.94v-8.66h22.53l3.53,22.8h.97l3.56-22.8h24.16v8.66h-3.79v40.61h3.79v8.66h-20.63v-8.66h3.06v-41.49h-.88l-9.27,50.16h-4.55l-9.41-50.16h-1.05v41.49h3.02v8.66h-15.05Z"/><path class="e" d="M240.6,364.59v-8.66h3.87l6.25-40.61h-3.7v-8.66h31.99v8.66h-3.93l6.6,40.61h3.62v8.66h-19.8v-8.66h3.62l-1.39-10.79h-9.49l-1.34,10.79h3.56v8.66h-19.85Zm18.66-26.67h7.43l-2.99-24.09h-1.57l-2.87,24.09Z"/></g></svg>