<?xml version="1.0" encoding="UTF-8"?><svg xmlns="http://www.w3.org/2000/svg" viewBox="0 0 464.16 564.47"><defs><style>.b{fill:#ffe053;}.c{fill:#fff;}.d{fill:#ffd925;}.e,.f,.g,.h,.i{fill:#ffc000;}.j{fill:#fba000;}.f{opacity:.22;}.f,.g,.h,.i{mix-blend-mode:multiply;}.g{opacity:.2;}.k{fill:none;stroke:#fff;stroke-linecap:round;stroke-linejoin:round;stroke-width:10px;}.h{opacity:.38;}.i{opacity:.63;}.l{isolation:isolate;}</style></defs><g class="l"><g id="a"><g><path class="k" d="M235.2,142.68l196.78,25.68s27.03,2.38,27.02,26.09c-.95,2.84,2.36,22.76-27.99,26.07-32.27,55.52-195.84,309.96-195.84,309.96,0,0-174.02-274.81-195.84-310.1-30.35-3.33-27.02-23.24-27.97-26.09,0-23.71,27.04-26.07,27.04-26.07l196.8-25.54Z"/><path class="k" d="M234.15,141.23v-30.48s-.37-9.93-11.12-14.68c-6.95-4.11-19.28-11.07-18.64-27.51,.77-19.81,18.78-33.61,37.94-29.71,15.69,3.19,24.31,17.15,23.7,32.58"/></g><path class="c" d="M6.37,476.75l.13-.13c-.33-.3-.64-.61-.94-.94,.29,.29,.51,.68,.81,1.07Z"/><g><path class="e" d="M448.79,390.93c7.29-5.66,9.67-15.12,5.48-22.96,1.32-.97,2.44-2.15,3.2-3.64,2.54-4.97-.74-9.9-4.37-13.23l1.44-4.77c3.84-12.69-.4-26.44-10.73-34.76l-75.69-60.99c-4.99,1.1-10.18,1.31-15.23,.61-6.1-.84-12.32-3.02-17.05-7.07-4.18-3.58-6.74-8.65-6.26-14.22,.26-2.93,1.25-5.67,2.68-8.22l-64.79-52.2c-7.62-6.14-17.6-8.52-27.18-6.49L58.8,201.58c-16.57,3.52-27.66,19.17-25.5,35.96-4.64,2.71-8.1,7-8.54,12.89-.3,4,1.04,7.93,3.13,11.34,1.19,1.94,3.38,3.44,4.43,5.39,.54,1.01,.91,1.41,1.17,1.52-.16,.49-.35,1.32-.56,2.66-1.44,9.48-5.31,15.89-3.08,26.07,2.05,9.34,7,17.24,14.24,23.38l.85,6.55c-.82,.31-1.62,.65-2.39,1.06-1.87,1.01-3.46,2.21-4.59,4.04-.36,.58-.68,1-.84,1.62-.21,.82-.44,1.84-.24,2.7,.19,1.39,.84,2.52,1.96,3.38,.9,.74,1.91,1.25,3.01,1.58-3.48,2.93-5.76,6.97-5.56,12.14,.33,8.35,7.68,13.83,14.36,17.6l2.36,18.24c-1.74,1.26-3.2,2.88-4.13,4.96-1.29,2.88-1.43,5.92-.11,8.86,1.41,3.14,4.33,5.15,7.51,6.23,3.5,10.24,11.92,18.24,22.67,21l294.56,75.67c16.88,4.34,34.18-5.4,39.23-22.08l5.43-17.94c7.95-3.37,14.46-9.92,16.08-18.3,1.25-6.49-.42-13.26-5.29-17.34l11.12-36.73c3.24-.4,6.42-1.35,8.7-3.11Z"/><path class="b" d="M443.82,311.57l-75.69-60.99c-4.99,1.1-10.18,1.31-15.23,.61-6.1-.84-12.32-3.02-17.05-7.07-4.18-3.58-6.74-8.65-6.26-14.22,.26-2.93,1.25-5.67,2.68-8.22l-64.79-52.2c-7.62-6.14-17.6-8.52-27.18-6.49L58.8,201.58c-7.95,1.69-14.61,6.18-19.18,12.24,28.78,8.42,56.96,18.76,84.85,29.75,30.29,11.93,60.27,24.62,90.56,36.54,30.19,11.88,60.72,23.04,91.98,31.79,15.41,4.31,30.99,8.03,46.73,10.95,15.27,2.83,30.69,4.54,46.08,6.53,13.25,1.71,26.67,3.21,40.03,2.06,5.13-.44,10.16-1.33,15.04-2.67-1.72-6.63-5.5-12.7-11.07-17.19Z"/><path class="j" d="M305.8,348.64c-3.29,19.81-26.74,39.03-50.33,27.19-17.09-8.58-29.37-45.83-11.72-59.58,9.34-7.27,26.34-3.41,36.64-.41,18.62,5.42,27.69,19.05,25.41,32.8Z"/><path class="f" d="M254.49,324.75c13.08,4.61,22.66,16.13,28.45,28.34,3,6.33,5.22,13.27,6.27,20.36,8.71-5.86,14.99-15.26,16.58-24.81,2.29-13.75-6.79-27.38-25.41-32.8-10.3-3-27.31-6.86-36.64,.41-2.39,1.86-4.21,4.16-5.57,6.75,5.48-.63,11.02-.11,16.31,1.75Z"/><ellipse class="j" cx="133.95" cy="326.31" rx="23.49" ry="25.11" transform="translate(-210.99 400.07) rotate(-79.75)"/><path class="h" d="M124.45,311.91c9.87,1.35,17.4,9.35,22.66,17.23,2.53,3.79,4.74,7.84,6.65,12.03,2.45-2.91,4.19-6.44,4.9-10.39,2.31-12.77-6.88-25.11-20.53-27.58-10.43-1.89-20.43,2.56-25.6,10.46,3.76-1.55,7.79-2.32,11.92-1.75Z"/><circle class="j" cx="201.05" cy="414.99" r="17.82"/><ellipse class="j" cx="408.72" cy="381.75" rx="17.82" ry="13.77" transform="translate(-39.65 716.04) rotate(-79.75)"/><ellipse class="j" cx="318.6" cy="456.82" rx="17.01" ry="16.2" transform="translate(-187.61 689.07) rotate(-79.75)"/><path class="h" d="M192.47,405.78c10.53,1.17,19.28,7.64,24.95,16.23,.52-1.21,.93-2.5,1.17-3.85,1.75-9.68-4.68-18.95-14.36-20.71-7.48-1.35-14.69,2.19-18.41,8.32,2.2-.24,4.43-.25,6.65,0Z"/><path class="h" d="M404.04,373.26c7.14,4.56,11.74,11.75,14.66,19.61,1.7-2.42,2.98-5.37,3.58-8.67,1.75-9.68-2.9-18.63-10.38-19.98-4.94-.89-9.86,1.76-13.16,6.43,1.85,.69,3.63,1.55,5.3,2.61Z"/><path class="h" d="M310.5,444.7c6.73,1.68,11.58,7.17,14.53,13.21,1.83,3.76,3.04,7.9,3.55,12.1,3-2.5,5.2-6.08,5.97-10.31,1.67-9.24-4.11-18.03-12.92-19.62-5.11-.92-10.11,.79-13.74,4.2,.87,.08,1.75,.2,2.61,.42Z"/><ellipse class="d" cx="123.65" cy="242.14" rx="20.25" ry="25.92" transform="translate(-136.63 320.75) rotate(-79.75)"/><path class="i" d="M140.66,250.56c-7.74-2.08-15.57-3.83-23.16-6.44-6.56-2.25-13.15-5.22-18.32-9.95-.45,1.07-.81,2.19-1.02,3.36-1.99,11.01,7.82,21.99,21.9,24.54,11.49,2.08,22.27-2.1,26.94-9.68-2.09-.66-4.21-1.26-6.33-1.83Z"/><path class="e" d="M287.26,242.13c-2.25,12.47-28.45,12.51-50.7,8.48-22.25-4.02-38.46-17.39-36.2-29.87,2.25-12.47,22.12-19.32,44.37-15.3,22.25,4.02,44.79,24.21,42.53,36.68Z"/><path class="g" d="M240.53,248.54c-3.91-5.55-5.62-12.22-4.75-18.97,1.01-7.81,5.9-14.86,12.86-18.58,2.23-1.19,4.58-1.98,6.97-2.36-3.56-1.43-7.23-2.53-10.88-3.2-22.25-4.02-42.11,2.83-44.37,15.3-2.25,12.47,13.95,25.84,36.2,29.87,2.13,.39,4.3,.73,6.48,1.04-.89-.99-1.74-2.01-2.51-3.11Z"/></g><g><path class="c" d="M89.88,233.85c11.97-1.55,27.1,4.21,27.1,17.35,0,13.69-9.47,23.95-17.11,25.13-7.76,1.21-10.53-3.47-11.71-5.93,0,.03,8.82-11.35,8.95-20.74,0-2.76-1.71-4.08-4.08-3.74-10,1.58-27.76,31.52-27.76,58,0,13.41,4.61,18.39,12.11,17.62,13.29-1.44,18.55-20.43,20.13-32.07,0,0,4.21-2.47,10.39-3.55,5.79-1.02,10.53,1.85,10.53,10.14,0,12.35-11.32,37.03-36.71,40.14-24.87,2.83-40.13-12.68-40.13-36.4,0-27.11,18.16-61.91,48.29-65.94Z"/><path class="c" d="M158.04,274.37c-2.24,3.64-12.5,29.11-13.55,45.66,0,0-2.89,2.55-7.24,3.56-9.21,2.14-17.63-.93-17.63-9.62,0-10.78,8.95-85.21,16.71-92.67,3.03-2.73,19.21-2.54,19.21,.56,0,6.58-2.76,13.34-4.08,17.62-2.24,7.16-8.42,41.43-8.42,46.55,.31,.01,.61,.03,.92,.04,2.63-8.1,15.26-42.88,20.79-44.42,12.37-3.35,21.32,.29,21.32,3.19,0,6.72-10,37.76-10,50.51,0,4.47,1.71,7.68,5.26,6.65,5.13-1.48,9.08-11.21,10-18.85,0,.01,11.32-4.71,11.32,3.3,0,9.98-12.37,23.31-28.03,27.73-13.95,3.91-19.21-2.85-19.21-14.14,0-7.37,3.03-22.5,3.95-25.9-.44,.07-.88,.14-1.32,.21Z"/><path class="c" d="M218.3,228.86c7.63-2.38,20-.65,20,13.82,0,16.84-9.34,32.97-17.76,35.61-7.63,2.39-11.32-3.06-11.32-3.06,0,0-1.45,4.26-1.45,12.55,0,6.45,3.42,7.76,8.29,6.25,11.45-3.57,24.34-18.86,27.37-45.74,0,0,1.18-1.43,3.16-2.18,4.61-17.51,13.42-33.87,26.45-37.91,7.63-2.38,21.71-.92,21.71,13.57,0,16.83-10.26,33.03-18.68,35.63-7.76,2.39-11.97-.62-12.37-.9-.13,.3-1.84,5.97-1.84,15.05,0,6.45,2.89,8.3,7.63,6.83,12.5-3.88,20-20.18,21.32-28.07,0,0,1.45-1.48,3.55-2.11,6.05-1.79,10.92-.8,10.92,4.6,0,10.68-10,30.12-32.37,37.02-11.58,3.58-22.5,1.79-27.37-6.14-4.74,9-12.63,17.44-24.34,21.12-15.53,4.91-33.29,1.77-33.29-15.62,0-23.96,10.66-54.14,30.39-60.32Zm-4.34,38.85c4.34-1.35,7.5-13.4,7.76-22.43,0-4.87-.92-5.1-1.58-4.9-.53,.16-.92,.68-1.84,2.68-2.89,7.09-5.92,15.53-7.24,22.65,0,0,.53,2.73,2.89,2Zm55.39-20.34c4.21-1.31,8.82-14.7,8.82-23.64,0-4.21-1.58-5.04-2.24-4.84-.53,.16-1.05,.72-1.97,2.71-2.89,7.08-7.24,18.43-8.55,25.55,0,0,1.45,.99,3.95,.22Z"/><path class="c" d="M321.72,219.98c0-.18,29.6,2.55,29.6,25.65,0,15.13-12.24,23.46-26.05,27.1-16.84,4.38-33.81-4.58-33.81-14.98,0-7.5,4.47-17.53,11.84-19.64,7.24-2.08,13.03,1.62,12.89,2.71-.26,3.62-6.18,15.25-6.18,16.31-.13,.96,1.84,5.13,7.76,3.52,6.58-1.78,10.39-8.01,10.39-15.77,0-11.61-15.26-16.68-24.74-15.23-1.71-1.22-5.26-10.32-4.87-13.86,.79-6.13,47.5-27.23,50.53-27.42,2.11-.49,8.42,7.76,8.42,10.14,0,4.97-10.92,14.58-15.92,15.8-1.97,.47-2.63-2.92-4.61-2.44-5.39,1.43-14.08,6.21-15.53,7.65l.26,.46Z"/><path class="c" d="M362.78,193.22c2.11-3.97,5-5.99,9.21-6.76,6.84-1.26,13.82,1.5,13.82,4.53-4.34,14.07-9.6,29.06-10.39,43.01-.26,3.07,0,5.92,1.97,5.58,3.55-.62,8.82-12.74,10.13-18.06,1.32-4.81,6.97-37.98,10.53-38.4,8.29-1.06,18.82,1.68,18.82,4.6,0,12.48-7.5,29.28-8.82,36.14-2.9,13.56-7.63,39.75-9.21,52.06-1.05,4.73-2.5,5.17-4.61,5.45-2.1,.24-12.24-1.55-15.39-2.17-1.71-.37-1.97-.85-1.97-2.96,0-5.01,5.26-22.2,6.84-32.18-2.76,4.51-7.89,9.55-14.61,10.81-13.29,2.55-16.32-7.82-16.32-15.63,.13-15.95,4.34-33.46,10-46.04Z"/><path class="c" d="M83.95,354.92c9.8-1.16,19.43,8.16,19.43,20.61,0,13.97-10.29,32.54-14.78,33.09-2.66,.36-6.81-4.3-7.97-7.49,0,.03,9.63-15.77,10.29-31.01,0-3.48-3.32-5.02-5.65-4.74-9.96,1.48-31.88,44.96-31.88,79.82,0,16.76,6.14,26.22,15.11,25.51,19.26-1.69,25.73-31.42,27.56-45.87,0,0,1.83-.44,2.99-.62,2.16-.33,5.48,.94,5.48,10.07,0,15.67-9.3,47.39-30.22,49.53-20.42,1.93-33.04-17.36-33.04-45.52,0-28.78,17.93-80.35,42.67-83.37Z"/><path class="c" d="M108.52,455.34c1.49-25.99,9.13-81.02,14.94-110.63,.33-1.4,1.66-1.84,2.49-2.02,3.98-.83,11.12,2.03,10.63,5.12-5.98,36.41-11.95,75.52-14.11,112.16-.33,4.55-.66,9.1-.83,13.62-1.83,3.23-12.45-.57-13.28-3.28-1-2.15-.17-9.6,.17-14.97Z"/><path class="c" d="M154.68,372.29c2.16,.61,3.82,1.66,4.32,3.03,0,0,2.32-2.6,5.81-3.54,17.43-4.78,20.26,10.36,19.76,27.81-.66,18.4-6.97,59.98-28.39,65.63-17.43,4.48-23.74-17.21-23.24-35.54,.83-21.76,11.29-51.51,21.75-57.38Zm-1.49,82.07c15.44-3.99,20.59-49.89,20.92-59.75,.17-4.87,1.16-16.92-5.48-15.08-9.63,2.66-17.43,33.67-19.09,43.54-.17,.71-3.82,.29-4.82-.31,0,0-1,4.89-1.16,11.07-.5,12.73,2.82,22.25,9.63,20.52Z"/><path class="c" d="M182.9,373.83c1.83-2.02,9.46-6.24,17.77-10.43,2.99-12.2,5.98-21.58,7.8-23.48,2.82-2.86,11.46,.76,10.96,2.73-1.11,4.44-2.21,8.88-3.32,13.33,3.15-1.48,5.81-2.65,7.8-3.44,3.65-1.48,6.81-3.14,7.8-1.3,1,2.01,2.49-.29,4.48,1.07,.83,.57,3.49,3.38,3.49,4.37,0,1.16-.33,2.6-2.49,3.28-6.81,2.32-16.1,6.43-24.57,10.38-5.48,22.96-10.63,48.1-10.63,63.21,0,4.32,1.83,6.42,5.31,5.35,9.8-3.01,23.24-19.06,23.91-28.07,0,0,5.98-3.39,5.98,6.58,0,11.29-15.77,29.25-26.4,32.53-11.29,3.5-20.75-5.49-20.75-22.59,0-9.96,3.32-30.87,7.47-49.89-2.49,1.31-4.98,2.6-7.47,3.9-4.32,2.28-9.46-4.87-7.14-7.54Z"/><path class="c" d="M268.58,368.51c-3.16,5.29-16.77,44.61-18.26,66.67,0,0-.66,1.7-4.15,2.81-5.98,1.89-11.95-3.02-11.95-6.5,0-18.1,7.47-114.94,13.78-124.08,2.49-3.45,13.12-3.48,13.12,1.18,0,9.63-2.82,17.16-4.65,26.7-1.99,10.75-7.64,55.71-7.64,63.18,.5-.05,1-.09,1.49-.14,3.82-12,17.43-57.14,25.57-59.63,4.32-1.34,12.95-.45,12.95,3.21,0,8.46-8.3,40.69-8.3,62.11,0,6.64,1.99,11.34,7.3,9.74,5.15-1.55,9.8-12.37,12.29-21.72,0,0,4.82-1.89,4.82,3.93,0,11.12-10.79,25.49-21.92,28.87-12.95,3.94-17.27-11.1-17.27-22.24,0-10.79,3.49-29.48,4.82-34.37-.66,.1-1.33,.19-1.99,.29Z"/><path class="c" d="M310.25,333.86c.5-1.97,1.83-2.67,2.99-2.99-.33,.06,13.61-3.18,12.12,2.89-4.98,19.55-12.62,53.86-12.45,66.77,0,6.14,2.32,8.49,4.98,7.77,10.29-2.77,13.28-21.57,13.78-28.35,0,0,6.14-3.19,6.14,3.46,0,10.5-5.98,30.87-24.41,35.91-9.46,2.62-14.28-2.75-14.28-15.88,0-17.44,7.8-56.88,11.12-69.58Zm2.82-26.02c0-4.64,2.16-19.22,10.46-21.42,4.15-1.09,6.64-.72,5.48,4.89,2.49,.69,4.98,1.9,4.98,6.38,0,5.33-3.49,15.93-13.95,18.72-2.66,.71-6.97-1.09-6.97-8.56Z"/><path class="c" d="M360.89,347.19c-6.81,16.14-15.61,46.4-15.44,61.97,0,0-2.16,2.99-5.65,3.82-7.47,1.81-9.46-6.62-9.46-19.24,0-35.35,4.32-69.88,14.45-72.26,1.99-.47,5.81-.99,5.31,3.27-1.99,16.38-6.64,32.9-6.64,49.34,.22-.05,.44-.1,.66-.16,6.31-19.89,12.62-41.07,21.92-60.81,.66-1.62,2.16-1.91,3.65-2.19,4.48-.86,12.12,.87,11.62,6.27-1.33,17.12-10.13,40.25-10.13,62.35,0,8.47,2.16,12.21,6.81,11.42,5.48-.92,8.8-10.2,10.13-14.72,0,0,3.65-.19,3.65,3.96,0,7.16-7.14,20.83-18.76,22.91-11.29,2.07-14.44-9.12-14.44-22.6,0-7.14,2.66-24.96,4.32-33.76-.66,.13-1.33,.27-1.99,.4Z"/><path class="c" d="M402.89,422.51c7.47-4.17,16.1-22.39,19.43-41.49-2.82,4.15-8.3,13.47-14.78,14.11-13.28,1.33-21.92-9.83-21.92-30.12,0-29.97,13.78-58.19,34.7-59.58,6.64-.45,14.28,1.54,14.28,12.18,0,1-.17,2.33-.17,2.33,1-.04,7.47,.57,6.97,4.41-1.99,13.13-3.98,38.51-9.46,64.06-6.14,28.55-16.27,42.57-25.4,43.52-12.62,1.26-23.41-3.76-25.4-8.26-2.16-4.94,1.83-12.14,9.63-11.92,1.99,4.51,9.63,9.52,12.12,10.77Zm3.82-37.76c8.8-.92,18.1-26.63,19.26-43.27,0,0-2.16,.27-4.48-2.25,1.83-4.26,2.66-13.1,2.66-17.08,0-3.48-1.83-6.72-4.98-6.51-12.12,.82-20.59,37.5-20.59,54.91,0,10.29,3.82,14.64,8.14,14.21Z"/></g></g></g></svg>