<?xml version="1.0" encoding="utf-8"?>
<!-- Generator: Adobe Illustrator 26.1.0, SVG Export Plug-In . SVG Version: 6.00 Build 0)  -->
<svg version="1.1" id="Ebene_1" xmlns="http://www.w3.org/2000/svg" xmlns:xlink="http://www.w3.org/1999/xlink" x="0px" y="0px"
	 viewBox="0 0 464.2 564.5" style="enable-background:new 0 0 464.2 564.5;" xml:space="preserve">
<style type="text/css">
	.st0{fill:none;stroke:#FFFFFF;stroke-width:30;stroke-miterlimit:10;}
	.st1{fill:#FFFFFF;}
	.st2{fill:#DFD1A4;}
</style>
<path class="st0" d="M250.8,132.9c0,65.1-52.8,117.9-117.9,117.9S15,198,15,132.9C15,67.8,67.8,15,132.9,15
	c39.8,0,76.9,20.1,98.7,53.4C244.2,87.6,250.8,110,250.8,132.9z"/>
<path class="st0" d="M448.3,132.9c0,65.1-52.8,117.9-117.9,117.9S212.4,198,212.4,132.9C212.4,67.8,265.2,15,330.3,15c0,0,0,0,0,0
	C395.5,15,448.3,67.8,448.3,132.9z"/>
<path class="st0" d="M448.3,132.9c0,119.6-97,216.6-216.6,216.6S15,252.5,15,132.9C15,67.8,67.8,15,132.9,15
	c39.8,0,76.9,20.1,98.7,53.4c35.6-54.5,108.7-69.9,163.2-34.2C428.2,56,448.3,93.1,448.3,132.9L448.3,132.9z"/>
<path class="st1" d="M105.8,464.7l-14.2-46.2h-0.4c0.5,9.4,0.8,15.7,0.8,18.8v27.4H80.9v-58.9h17l13.9,45h0.2l14.8-45h17v58.9h-11.6
	v-27.9c0-1.3,0-2.8,0.1-4.5s0.2-6.3,0.5-13.7h-0.4l-15.2,46.1H105.8z"/>
<path class="st1" d="M194.8,464.8l-4.3-14H169l-4.3,14h-13.5l20.8-59.1h15.3l20.9,59.1H194.8z M187.5,440.2
	c-4-12.7-6.2-19.9-6.7-21.6c-0.5-1.7-0.8-3-1.1-3.9c-0.9,3.4-3.4,11.9-7.6,25.5H187.5z"/>
<path class="st2" d="M193.6,394.5c0.1,1.5-0.5,2.9-1.6,3.9c-1.1,1-2.6,1.5-4.1,1.5c-1.4,0-2.9-0.4-4-1.3c-1.1-1-1.7-2.5-1.6-4
	c-0.1-1.6,0.5-3.1,1.6-4.1c1.1-0.9,2.6-1.4,4-1.3c1.5-0.1,3,0.4,4.2,1.5C193.1,391.6,193.6,393,193.6,394.5z"/>
<path class="st2" d="M177.2,394.5c0.1,1.5-0.5,2.9-1.5,3.9c-1.1,1-2.6,1.5-4.2,1.5c-1.5,0.1-3-0.4-4.1-1.4c-1.1-1-1.6-2.5-1.5-4
	c-0.1-1.5,0.5-2.9,1.5-4c2.4-1.9,5.9-1.9,8.2,0.1C176.7,391.6,177.3,393,177.2,394.5z"/>
<path class="st1" d="M250.3,448.3c0,5.3-1.9,9.5-5.7,12.6c-3.8,3-9.2,4.6-16,4.6c-5.8,0.1-11.5-1.1-16.7-3.5v-11.6
	c3.3,1.5,6.6,2.8,10.1,3.7c2.5,0.7,5,1.1,7.5,1.1c2.2,0.1,4.4-0.4,6.3-1.6c1.5-1.1,2.3-2.8,2.2-4.7c0-1.1-0.3-2.2-1-3.1
	c-0.8-1-1.7-1.9-2.8-2.6c-2.5-1.5-5-2.8-7.6-4c-2.9-1.3-5.6-2.9-8.1-4.9c-1.8-1.5-3.2-3.4-4.3-5.4c-1.1-2.3-1.7-4.7-1.6-7.2
	c0-5.2,1.8-9.3,5.3-12.3c3.5-3,8.4-4.5,14.6-4.5c3,0,5.9,0.4,8.8,1.1c3,0.8,5.9,1.8,8.7,3.1l-4,9.7c-2.5-1.1-5.1-2-7.8-2.7
	c-2-0.5-4-0.8-6.1-0.8c-2-0.1-3.9,0.5-5.4,1.6c-1.2,1.1-1.9,2.7-1.9,4.3c0,1,0.2,2,0.8,2.9c0.6,0.9,1.5,1.8,2.4,2.4
	c2.6,1.5,5.2,2.9,7.9,4.1c5.5,2.6,9.3,5.3,11.3,7.9C249.4,441.4,250.4,444.8,250.3,448.3z"/>
<path class="st1" d="M283.7,464.7h-12.5v-48.5h-16v-10.4h44.5v10.4h-16V464.7z"/>
<path class="st1" d="M342.7,464.7h-33.9v-58.9h33.9V416h-21.4V429h19.9v10.2h-19.9v15.2h21.4V464.7z"/>
<path class="st1" d="M367.5,442.1v22.6H355v-58.9h17.2c8,0,13.9,1.5,17.8,4.4s5.8,7.3,5.8,13.3c0,3.3-1,6.5-2.9,9.2
	c-2.1,2.8-4.9,5-8.1,6.4c8.9,13.2,14.6,21.8,17.3,25.7h-13.9l-14.1-22.6H367.5z M367.5,431.9h4c4,0,6.9-0.7,8.7-2
	c1.9-1.3,2.8-3.4,2.8-6.2c0-2.8-1-4.8-2.9-6c-1.9-1.2-4.9-1.8-8.9-1.8h-3.8L367.5,431.9z"/>
<path class="st1" d="M48.2,504.8h18.3c8.3,0,14.4,1.2,18.2,3.6s5.7,6.2,5.7,11.3c0.1,3.1-0.7,6.1-2.5,8.7c-1.6,2.2-3.9,3.7-6.6,4.1
	v0.4c3.7,0.8,6.4,2.4,8.1,4.7c1.7,2.3,2.5,5.3,2.5,9.1c0,5.4-1.9,9.6-5.8,12.6s-9.2,4.5-15.8,4.5h-22L48.2,504.8z M60.7,528.1H68
	c3.4,0,5.8-0.5,7.3-1.6s2.3-2.8,2.3-5.2c0.2-2-0.8-3.8-2.5-4.9c-1.7-1-4.3-1.5-7.8-1.5h-6.6V528.1z M60.7,538v15.3h8.1
	c3.4,0,6-0.7,7.6-2s2.5-3.3,2.5-6c0-4.9-3.5-7.3-10.5-7.3L60.7,538z"/>
<path class="st1" d="M139.7,563.7l-4.3-14H114l-4.3,14H96.2l20.8-59.1h15.3l20.9,59.1H139.7z M132.5,539.2
	c-4-12.7-6.2-19.9-6.7-21.5c-0.5-1.7-0.8-3-1.1-3.9c-0.9,3.4-3.4,11.9-7.6,25.5H132.5z"/>
<path class="st2" d="M122.2,493.4c0.1,1.5-0.5,2.9-1.5,3.9c-1.1,1-2.6,1.6-4.1,1.5c-1.5,0.1-3-0.4-4.1-1.4c-1.1-1-1.6-2.5-1.5-4
	c-0.1-1.5,0.5-2.9,1.5-4c1.1-1,2.6-1.5,4.1-1.4c1.5-0.1,3,0.5,4.2,1.5C121.7,490.5,122.3,492,122.2,493.4z"/>
<path class="st2" d="M138.6,493.4c0.1,1.5-0.5,2.9-1.6,3.9c-1.1,1-2.6,1.5-4.2,1.5c-1.4,0-2.9-0.4-4-1.3c-1.2-1-1.8-2.5-1.6-4
	c-0.1-1.6,0.5-3.1,1.6-4.1c1.1-0.9,2.6-1.4,4-1.3c1.5-0.1,3,0.4,4.2,1.5C138.1,490.5,138.6,492,138.6,493.4z"/>
<path class="st1" d="M185.6,514.3c-4.3-0.2-8.4,1.8-10.9,5.3c-2.6,3.5-3.9,8.4-3.9,14.8c0,13.1,4.9,19.7,14.8,19.7
	c4.1,0,9.1-1,15-3.1v10.5c-5.1,2.1-10.7,3.1-16.2,3c-8.6,0-15.1-2.6-19.7-7.8c-4.5-5.2-6.8-12.7-6.8-22.4c-0.1-5.5,1-11.1,3.3-16.1
	c2.1-4.4,5.4-8.1,9.6-10.6c4.5-2.5,9.5-3.8,14.7-3.7c6,0.1,11.9,1.5,17.2,4.2l-4,10.1c-2.2-1-4.4-1.9-6.7-2.7
	C190,514.7,187.8,514.3,185.6,514.3z"/>
<path class="st1" d="M260.5,563.7h-14.2l-15.4-24.8l-5.3,3.8v21h-12.5v-58.8h12.5v26.9l4.9-6.9l16-20h13.9l-20.5,26L260.5,563.7z"/>
<path class="st1" d="M301.8,563.7h-33.9v-58.9h33.9V515h-21.4V528h19.9v10.2h-19.9v15.2h21.4V563.7z"/>
<path class="st1" d="M326.6,541.1v22.6h-12.5v-58.9h17.2c8,0,13.9,1.5,17.8,4.4c3.8,2.9,5.8,7.3,5.8,13.3c0,3.3-1,6.5-2.9,9.2
	c-2.1,2.8-4.9,5-8.1,6.3c8.9,13.2,14.6,21.8,17.3,25.7h-13.9l-14.1-22.6L326.6,541.1z M326.6,530.9h4c3.9,0,6.9-0.7,8.7-2
	s2.8-3.4,2.8-6.2c0-2.8-1-4.8-2.9-6c-1.9-1.2-4.9-1.8-8.9-1.8h-3.8L326.6,530.9z"/>
<path class="st1" d="M402.5,563.7h-33.9v-58.9h33.9V515h-21.4V528H401v10.2h-19.9v15.2h21.4V563.7z"/>
<path class="st1" d="M414.8,563.7v-58.9h12.5v58.9L414.8,563.7z"/>
<circle class="st2" cx="30.9" cy="51.2" r="15.9"/>
<circle class="st2" cx="260.4" cy="94.1" r="15.9"/>
<circle class="st2" cx="154.5" cy="232.4" r="15.9"/>
<circle class="st2" cx="403.5" cy="62.3" r="15.9"/>
<circle class="st2" cx="378.1" cy="279.1" r="15.9"/>
<circle class="st2" cx="448.3" cy="182.3" r="15.9"/>
<circle class="st2" cx="48.2" cy="266.7" r="15.9"/>
<circle class="st2" cx="228.2" cy="339.2" r="15.9"/>
</svg>
