<?xml version="1.0" encoding="utf-8"?>
<!-- Generator: Adobe Illustrator 26.1.0, SVG Export Plug-In . SVG Version: 6.00 Build 0)  -->
<svg version="1.1" id="Ebene_1" xmlns="http://www.w3.org/2000/svg" xmlns:xlink="http://www.w3.org/1999/xlink" x="0px" y="0px"
	 viewBox="0 0 464.2 564.5" style="enable-background:new 0 0 464.2 564.5;" xml:space="preserve">
<style type="text/css">
	.st0{fill:#7F3F19;}
	.st1{fill:#FFFFFF;}
	.st2{fill:#DFD1A4;}
</style>
<g>
	<path class="st0" d="M231.7,367c-58.9,0-114.3-22.9-156-64.6c-41.7-41.7-64.6-97.1-64.6-156c0-34.1,13.3-66.1,37.4-90.2
		C68.6,36,94.2,23.5,122.3,19.9l0.3,0c0.7-0.1,1.4-0.2,2.1-0.2c0,0,1-0.1,1.3-0.1l1-0.1c4-0.4,8-0.6,11.8-0.6c1.9,0,3.9,0.1,6.2,0.2
		l0.9,0c0.8,0,1.7,0.1,2.5,0.2l1.1,0.1c0.8,0.1,1.7,0.1,2.5,0.2l1,0.1c0.9,0.1,1.7,0.2,2.6,0.3l0.7,0.1c3,0.4,5.9,0.9,8.9,1.5
		l0.6,0.1c0.8,0.2,1.7,0.4,2.5,0.6l1,0.2c0.8,0.2,1.6,0.4,2.4,0.6l1,0.3c0.8,0.2,1.6,0.4,2.4,0.7l0.9,0.3c3,0.9,5.9,1.9,8.8,3
		c0.9,0.3,1.7,0.7,2.5,1l0.9,0.4c0.7,0.3,1.5,0.6,2.2,1l1,0.5c0.7,0.3,1.4,0.7,2.2,1l1,0.5c0.7,0.4,1.5,0.7,2.2,1.1l0.8,0.4
		c2.5,1.3,4.9,2.7,7.3,4.1l0.9,0.5c0.6,0.4,1.3,0.8,1.9,1.2c0.4,0.2,0.7,0.5,1.1,0.7c0.6,0.4,1.2,0.8,1.8,1.2
		c0.4,0.3,0.8,0.5,1.1,0.8c0.6,0.4,1.2,0.8,1.8,1.3c0.3,0.2,1.1,0.8,1.1,0.8l0.2,0.1c0.5,0.4,1.1,0.8,1.6,1.2
		c0.2,0.1,0.9,0.7,0.9,0.7c1.1,0.9,2.2,1.8,3.3,2.7l0.4,0.3c0.3,0.2,0.5,0.4,0.8,0.6c0.4,0.4,0.9,0.8,1.3,1.1l0.2,0.2
		c0.5,0.4,0.9,0.8,1.2,1.1c0.5,0.4,0.9,0.9,1.4,1.3c0.4,0.4,0.8,0.8,1.3,1.2c0.5,0.4,0.9,0.9,1.4,1.3c0.4,0.4,0.9,0.9,1.3,1.3
		l0.2,0.2c0.3,0.4,0.7,0.7,1,1.1c0.2,0.2,0.4,0.5,0.6,0.7c13.4-14.3,30.1-25.4,48.6-32.2c0.9-0.3,1.8-0.7,2.7-1c0,0,0.8-0.3,1-0.3
		c1.4-0.5,2.9-1,4.6-1.5c7-2.1,14.2-3.5,21.4-4.4l0.2,0c0.4-0.1,0.9-0.1,1.3-0.1l0.7-0.1c4.3-0.4,8.6-0.6,12.9-0.6
		c24.6,0,48.7,7.2,69.5,20.8c28.7,18.7,48.3,47.5,55.2,80.9l0.1,0.5c0.2,0.9,0.3,1.8,0.5,2.6l0.2,1.2c0.1,0.7,0.2,1.4,0.4,2.1
		c0.1,0.4,0.1,0.9,0.2,1.4l0.1,0.5c0.1,0.9,0.3,1.9,0.4,2.8c0.1,0.7,0.2,1.5,0.2,2.2c0,0.4,0.1,1.5,0.1,1.5c0.1,0.7,0.1,1.5,0.2,2.3
		c0,0.5,0.1,1,0.1,1.4c0,0.8,0.1,1.7,0.1,2.5c0,0,0,0.9,0,1.2c0,1.2,0.1,2.5,0.1,3.7l0,0.1c0,1,0,2.1,0,3.1
		c-0.8,57.7-23.7,111.9-64.6,152.8C346,344.1,290.6,367,231.7,367z M84.2,261.8c35.5,45.3,89.8,72,147.5,72
		c57.6,0,111.9-26.7,147.3-71.8c-16.9,8-35.5,12.1-54.4,12.1c-34.1,0-66.1-13.3-90.3-37.4c-0.9-0.9-1.8-1.9-2.8-2.8
		c-24.1,25.6-57.8,40.2-92.9,40.2C119.8,274.1,101.2,269.9,84.2,261.8z M251.5,206.2c2,2.5,4.2,4.8,6.4,7.1
		c17.8,17.8,41.5,27.6,66.7,27.6c25.2,0,48.9-9.8,66.7-27.7c17.2-17.2,27-40,27.6-64.3l0-0.8c0-0.5,0-1.1,0-1.6c0-0.9,0-1.8,0-2.8
		l0-0.9c0-0.6-0.1-1.3-0.1-1.9c0-0.3,0-0.7-0.1-1c0-0.6-0.1-1.2-0.1-1.8l-0.1-1c-0.1-0.6-0.1-1.3-0.2-1.9l-0.1-0.8
		c-0.1-0.8-0.2-1.6-0.3-2.5c-0.1-0.4-0.1-0.8-0.2-1.2l0-0.3c-0.1-0.4-0.1-0.7-0.2-1c-0.1-0.6-0.2-1.1-0.3-1.7l-0.1-0.7
		c-9.1-43.5-47.9-75-92.4-75c-3.1,0-6.2,0.2-9.3,0.5l-0.4,0c-0.3,0-1.1,0.1-1.1,0.1c-2.9,0.3-5.7,0.8-8.5,1.4c-3,0.6-6.1,1.4-9,2.4
		c0,0-1.7,0.5-1.9,0.6c-16.7,5.7-31.5,15.9-42.7,29.7c9.7,18.3,14.8,38.9,14.8,59.7C266.3,167.3,261.2,187.9,251.5,206.2z
		 M138.7,52.1c-3.1,0-6.2,0.2-9.3,0.4l-0.1,0c-0.4,0-0.7,0.1-1.1,0.1c0,0-1.2,0.1-1.4,0.2l-0.7,0.1c-46.7,6.2-81.8,46.4-81.8,93.5
		c0,52,42.3,94.4,94.4,94.4c28.5,0,55-12.6,73-34.7c-9.7-18.2-14.8-38.8-14.8-59.7c0-20.8,5.1-41.4,14.8-59.7
		c-0.3-0.3-0.6-0.7-0.9-1l-0.3-0.4c-0.2-0.2-0.4-0.5-0.6-0.7l-0.7-0.8c-0.2-0.3-0.4-0.5-0.7-0.8l-0.1-0.1
		C190.8,63.4,165.3,52.1,138.7,52.1v-2.5V52.1z M231.7,129.9c-1,5.4-1.5,11-1.5,16.5c0,5.6,0.5,11.1,1.4,16.5
		c1-5.4,1.4-10.9,1.4-16.5C233.1,140.9,232.6,135.4,231.7,129.9z"/>
	<path class="st1" d="M324.9,21.3c24,0,47.6,7,68.2,20.4c28.3,18.5,47.4,47,54.1,79.3c0,0.2,0.1,0.3,0.1,0.5
		c0.2,0.9,0.3,1.7,0.5,2.6c0.1,0.3,0.1,0.6,0.2,1c0.1,0.8,0.3,1.5,0.4,2.3c0.1,0.6,0.2,1.2,0.3,1.8c0.1,0.9,0.2,1.8,0.4,2.8
		c0.1,0.7,0.2,1.4,0.2,2.2c0,0.5,0.1,1,0.1,1.5c0.1,0.7,0.1,1.5,0.2,2.2c0,0.5,0.1,0.9,0.1,1.4c0,0.8,0.1,1.6,0.1,2.4
		c0,0.4,0,0.8,0,1.2c0,1.2,0.1,2.4,0.1,3.6c0,0,0,0,0,0c0,0,0,0,0,0v0c0,0,0,0.1,0,0.1c0,1,0,2,0,3c-0.8,57.1-23.4,110.6-63.8,151.1
		c-41.2,41.2-96,63.9-154.2,63.9c-58.2,0-113-22.7-154.2-63.9c-41.2-41.2-63.9-96-63.9-154.2c0-33.4,13-64.8,36.7-88.5
		c19.8-19.8,45-32.1,72.3-35.6c0.1,0,0.2,0,0.3,0c0.7-0.1,1.4-0.2,2.1-0.2c0.4,0,0.8-0.1,1.2-0.1c0.3,0,0.6-0.1,1-0.1
		c3.8-0.4,7.7-0.5,11.6-0.5c0,0,0,0,0,0h0c0,0,0,0,0,0c2,0,4,0.1,6,0.2c0.3,0,0.6,0,0.9,0c0.8,0,1.7,0.1,2.5,0.2
		c0.4,0,0.7,0.1,1.1,0.1c0.8,0.1,1.6,0.1,2.5,0.2c0.3,0,0.7,0.1,1,0.1c0.8,0.1,1.7,0.2,2.5,0.3c0.2,0,0.4,0.1,0.6,0.1
		c2.9,0.4,5.8,0.9,8.7,1.5c0.2,0,0.4,0.1,0.6,0.1c0.8,0.2,1.6,0.4,2.5,0.6c0.3,0.1,0.6,0.2,1,0.2c0.8,0.2,1.6,0.4,2.4,0.6
		c0.3,0.1,0.7,0.2,1,0.3c0.8,0.2,1.6,0.4,2.4,0.7c0.3,0.1,0.6,0.2,0.9,0.3c2.9,0.9,5.8,1.9,8.6,2.9c0,0,0,0,0,0
		c0.8,0.3,1.6,0.6,2.4,0.9c0.3,0.1,0.6,0.2,0.9,0.4c0.7,0.3,1.5,0.6,2.2,0.9c0.3,0.1,0.7,0.3,1,0.5c0.7,0.3,1.4,0.6,2.1,1
		c0.3,0.2,0.7,0.3,1,0.5c0.7,0.3,1.4,0.7,2.1,1.1c0.2,0.1,0.5,0.3,0.7,0.4c2.4,1.3,4.8,2.6,7.1,4c0.3,0.2,0.6,0.4,0.9,0.5
		c0.6,0.4,1.3,0.8,1.9,1.2c0.4,0.2,0.7,0.5,1.1,0.7c0.6,0.4,1.2,0.8,1.8,1.2c0.4,0.3,0.8,0.5,1.1,0.8c0.6,0.4,1.2,0.8,1.7,1.2
		c0.4,0.3,0.7,0.5,1.1,0.8c0.6,0.4,1.2,0.9,1.7,1.3c0.3,0.2,0.6,0.5,0.9,0.7c1.1,0.9,2.2,1.7,3.3,2.6c0.4,0.3,0.7,0.6,1.1,0.9
		c0.5,0.4,1,0.9,1.5,1.3c0.4,0.4,0.8,0.7,1.2,1.1c0.5,0.4,0.9,0.9,1.4,1.3c0.4,0.4,0.8,0.8,1.2,1.2c0.4,0.4,0.9,0.9,1.3,1.3
		c0.4,0.4,0.9,0.9,1.3,1.3c0.4,0.4,0.8,0.8,1.2,1.3c0.5,0.5,0.9,1,1.4,1.5c0.3,0.4,0.7,0.7,1,1.1c0,0,0,0,0,0
		c13.5-15.1,30.4-26.5,49.4-33.5c0.9-0.3,1.8-0.6,2.7-1c0.3-0.1,0.6-0.2,0.9-0.3c1.5-0.5,3-1,4.5-1.4c0,0,0,0,0,0
		c6.8-2,13.8-3.4,21-4.3c0.5-0.1,1-0.1,1.4-0.2c0.2,0,0.4,0,0.6-0.1C316.5,21.5,320.7,21.3,324.9,21.3 M324.6,243.4
		C324.6,243.4,324.6,243.4,324.6,243.4c25.9,0,50.2-10.1,68.5-28.4c17.7-17.7,27.7-41.1,28.3-66c0-0.8,0-1.7,0-2.5
		c0-0.9,0-1.9,0-2.8c0-0.3,0-0.6,0-0.9c0-0.7-0.1-1.3-0.1-2c0-0.3,0-0.7-0.1-1c0-0.6-0.1-1.2-0.1-1.8c0-0.3-0.1-0.7-0.1-1
		c-0.1-0.6-0.1-1.3-0.2-1.9c0-0.3-0.1-0.6-0.1-0.9c-0.1-0.8-0.2-1.7-0.4-2.5c-0.1-0.5-0.2-1-0.2-1.5c-0.1-0.4-0.1-0.7-0.2-1.1
		c-0.1-0.6-0.2-1.2-0.3-1.8c0-0.2-0.1-0.4-0.1-0.7c-9.2-43.9-48.2-77-94.8-77c-3.2,0-6.4,0.2-9.6,0.5c-0.1,0-0.3,0-0.4,0
		c-0.4,0-0.8,0.1-1.2,0.1c-2.9,0.3-5.8,0.8-8.7,1.4c-3.1,0.7-6.2,1.5-9.2,2.4c-0.3,0.1-0.6,0.2-0.9,0.3c-0.4,0.1-0.7,0.2-1.1,0.4
		C275.6,60.8,260,72,248.5,86.5c10.1,18.3,15.3,38.9,15.3,59.9c0,21.7-5.6,42.2-15.3,60c2.4,3,4.9,5.8,7.6,8.5
		C274.4,233.3,298.7,243.4,324.6,243.4 M138.7,243.3c30.8,0,58.3-14.4,76-36.9c-10-18.2-15.3-38.7-15.3-60c0-21.7,5.6-42.2,15.3-60
		c-0.6-0.8-1.3-1.6-1.9-2.4c-0.1-0.1-0.2-0.3-0.3-0.4c-0.3-0.4-0.6-0.7-1-1.1c-0.3-0.4-0.7-0.8-1-1.2c0,0-0.1-0.1-0.1-0.1
		c-18.2-20.1-44.1-31.7-71.7-31.7c0,0,0,0,0,0c-3.2,0-6.4,0.2-9.5,0.5c0,0-0.1,0-0.1,0c-0.5,0-1,0.1-1.5,0.2c-0.4,0-0.7,0.1-1.1,0.1
		c-0.2,0-0.4,0.1-0.7,0.1c-47.4,6.3-84,47-84,96C41.8,199.9,85.3,243.3,138.7,243.3 M231.6,173.9c2.6-8.7,4-17.9,4-27.4v0
		c0-9.3-1.3-18.6-3.9-27.4c-2.6,8.7-4,17.9-4,27.4C227.7,155.9,229.1,165.1,231.6,173.9 M138.7,271.6L138.7,271.6
		C138.7,271.6,138.7,271.6,138.7,271.6c-23,0-44.5-6.2-63.1-17.1c34.3,49.4,91.4,81.8,156,81.8c64.5,0,121.5-32.3,155.9-81.6
		c-18.9,11-40.4,16.9-62.9,16.9c0,0,0,0,0,0c0,0,0,0,0,0c-33.4,0-64.8-13-88.5-36.6c-1.6-1.6-3.1-3.1-4.5-4.8
		C208.7,255.6,175.5,271.6,138.7,271.6C138.7,271.6,138.7,271.6,138.7,271.6 M449.7,146.5C449.7,146.5,449.7,146.5,449.7,146.5
		C449.7,146.5,449.7,146.5,449.7,146.5 M449.7,146.5L449.7,146.5C449.7,146.5,449.7,146.5,449.7,146.5
		C449.7,146.5,449.7,146.5,449.7,146.5 M324.9,16.3c-4.4,0-8.8,0.2-13.1,0.7l-0.2,0l-0.4,0c-0.4,0-0.9,0.1-1.3,0.1l-0.2,0
		c-7.4,0.8-14.7,2.3-21.8,4.4l-0.2,0.1l0,0c-1.6,0.5-3.1,1-4.5,1.4c-0.2,0.1-0.4,0.1-0.6,0.2l-0.4,0.1c-1,0.3-1.9,0.7-2.8,1
		c-17.9,6.6-34.3,17.2-47.7,30.9l-0.1-0.1c-0.4-0.4-0.9-0.9-1.3-1.3c-0.5-0.5-0.9-0.9-1.4-1.3c-0.4-0.4-0.9-0.8-1.3-1.2
		c-0.5-0.4-1-0.9-1.4-1.3c-0.4-0.3-0.8-0.7-1.2-1l-0.1-0.1l-0.2-0.2c-0.4-0.4-0.8-0.8-1.3-1.1c-0.3-0.2-0.5-0.5-0.8-0.7l-0.4-0.3
		c-1.1-0.9-2.3-1.9-3.4-2.7l-0.3-0.3c-0.2-0.2-0.4-0.3-0.6-0.5c-0.5-0.4-1-0.8-1.6-1.2l-0.2-0.2l-0.3-0.2c-0.3-0.2-0.6-0.4-0.9-0.6
		c-0.6-0.4-1.2-0.9-1.8-1.3c-0.4-0.3-0.8-0.5-1.2-0.8c-0.6-0.4-1.2-0.8-1.9-1.2c-0.4-0.2-0.7-0.5-1.1-0.7l-0.1,0
		c-0.7-0.4-1.3-0.8-2-1.2c-0.2-0.1-0.4-0.3-0.6-0.4L206,35c-2.4-1.5-4.9-2.9-7.4-4.2l-0.3-0.1c-0.2-0.1-0.3-0.2-0.5-0.3
		c-0.7-0.4-1.5-0.7-2.2-1.1l-0.2-0.1c-0.3-0.1-0.6-0.3-0.8-0.4c-0.7-0.3-1.5-0.7-2.2-1c-0.4-0.2-0.7-0.3-1.1-0.5
		c-0.8-0.3-1.5-0.7-2.3-1c-0.2-0.1-0.4-0.2-0.6-0.3l-0.3-0.1c-0.8-0.3-1.6-0.7-2.5-1l0,0l0,0c-2.9-1.1-5.8-2.1-8.9-3l-0.3-0.1
		c-0.2-0.1-0.4-0.1-0.6-0.2c-0.8-0.2-1.6-0.5-2.5-0.7c-0.3-0.1-0.7-0.2-1-0.3c-0.8-0.2-1.6-0.4-2.5-0.6c-0.3-0.1-0.5-0.1-0.8-0.2
		l-0.2-0.1c-0.9-0.2-1.7-0.4-2.6-0.6c-0.1,0-0.3-0.1-0.4-0.1l-0.2,0c-3-0.6-6-1.2-9-1.6l-0.2,0c-0.1,0-0.3,0-0.4-0.1
		c-0.9-0.1-1.8-0.2-2.6-0.3l-0.2,0c-0.3,0-0.5-0.1-0.8-0.1c-0.8-0.1-1.7-0.2-2.6-0.2c-0.4,0-0.7-0.1-1.1-0.1
		c-0.9-0.1-1.7-0.1-2.6-0.2c-0.2,0-0.4,0-0.6,0l-0.3,0c-2.3-0.1-4.4-0.2-6.3-0.2l0,1.5l0-1.5c-4,0-8,0.2-12.1,0.6l-0.3,0
		c-0.2,0-0.4,0-0.6,0.1c-0.3,0-0.6,0.1-0.9,0.1l-0.4,0c-0.7,0.1-1.4,0.2-2.1,0.2l-0.2,0l-0.1,0c-28.6,3.7-54.7,16.5-75.2,37
		C22.1,79,8.6,111.7,8.6,146.5c0,59.6,23.2,115.6,65.3,157.7c42.1,42.1,98.2,65.3,157.7,65.3c59.6,0,115.6-23.2,157.7-65.3
		c41.3-41.3,64.5-96.2,65.3-154.5c0-1,0-2,0-3.1l0-0.1l0,0v0v-0.1l0,0c0-1.1,0-2.3-0.1-3.7c0-0.3,0-0.6,0-0.9l0-0.4
		c0-0.8-0.1-1.7-0.1-2.5c0-0.5-0.1-1-0.1-1.5c-0.1-0.8-0.1-1.5-0.2-2.3l0-0.2c0-0.4-0.1-0.9-0.1-1.3c-0.1-0.8-0.2-1.5-0.2-2.3
		c-0.1-1-0.2-1.9-0.4-2.9l-0.1-0.5c-0.1-0.5-0.1-1-0.2-1.4c-0.1-0.8-0.2-1.5-0.4-2.3l0-0.1l-0.1-0.3c0-0.2-0.1-0.5-0.1-0.7
		c-0.2-0.9-0.3-1.8-0.5-2.7L452,120c-3.5-16.8-10.1-32.5-19.7-46.6c-9.7-14.3-22-26.4-36.6-35.9C374.5,23.6,350,16.3,324.9,16.3
		L324.9,16.3z M254.5,87.1c10.8-12.8,24.8-22.3,40.6-27.7c0.3-0.1,0.6-0.2,0.9-0.3l0.2-0.1l0.3-0.1c0.2-0.1,0.4-0.1,0.6-0.2
		c2.9-0.9,5.8-1.7,8.8-2.3c2.7-0.6,5.5-1,8.3-1.3l0.4,0c0.2,0,0.5-0.1,0.7-0.1l0.2,0l0.2,0c3-0.3,6.1-0.4,9.1-0.4
		c21.2,0,41.9,7.4,58.3,20.9c16.2,13.3,27.4,31.8,31.7,52.2l0.1,0.6c0.1,0.6,0.2,1.1,0.3,1.7c0.1,0.3,0.1,0.6,0.2,0.9l0,0.1l0,0.2
		c0.1,0.4,0.1,0.8,0.2,1.2c0.1,0.9,0.2,1.7,0.3,2.4c0,0.1,0,0.3,0,0.4l0,0.4c0.1,0.6,0.1,1.2,0.2,1.8c0,0.2,0,0.5,0.1,0.7l0,0.3
		c0.1,0.6,0.1,1.2,0.1,1.7c0,0.3,0,0.6,0.1,1c0,0.6,0.1,1.2,0.1,1.9l0,0.3c0,0.2,0,0.3,0,0.5c0,1,0,1.9,0,2.7c0,0.5,0,1.1,0,1.6
		l0,0.8c-0.6,23.6-10.1,45.8-26.9,62.6c-17.4,17.4-40.4,26.9-65,26.9l0,5l0-5c-24.5,0-47.6-9.6-65-26.9c-1.8-1.8-3.5-3.7-5.2-5.6
		c9.4-18.3,14.4-38.7,14.4-59.4C268.9,125.8,263.9,105.4,254.5,87.1L254.5,87.1z M138.7,238.3c-50.7,0-91.9-41.2-91.9-91.9
		c0-45.9,34.3-85,79.7-91.1l0.3,0l0.3,0c0.2,0,0.4-0.1,0.6-0.1l0.4,0l0.3,0c0.4,0,0.7-0.1,1.1-0.1l0.1,0c3-0.3,6-0.4,9-0.4
		c25.9,0,50.7,11,68,30.1l0.1,0.1c0.2,0.2,0.4,0.5,0.6,0.7l0.3,0.4l0.4,0.4c0.2,0.2,0.4,0.4,0.6,0.6l0.1,0.1
		c-9.4,18.3-14.4,38.8-14.4,59.4c0,20.7,4.9,41.2,14.3,59.4C191.2,226.5,165.9,238.3,138.7,238.3L138.7,238.3z M138.7,276.6
		L138.7,276.6L138.7,276.6c18.7,0,36.8-3.9,53.7-11.6c14.7-6.7,27.9-15.9,39.2-27.5c0.3,0.3,0.7,0.7,1,1
		c24.6,24.6,57.3,38.1,92,38.1c15.8,0,31.3-2.8,45.9-8.3c-14.7,16.7-32.4,30.8-52,41.3c-26.6,14.2-56.6,21.7-86.9,21.7
		c-30.3,0-60.4-7.5-87-21.8c-19.6-10.5-37.3-24.6-52-41.4C107.3,273.7,122.9,276.6,138.7,276.6L138.7,276.6z"/>
</g>
<path class="st1" d="M105.8,464.7l-14.2-46.2h-0.4c0.5,9.4,0.8,15.7,0.8,18.8v27.4H80.9v-58.9h17l13.9,45h0.2l14.8-45h17v58.9h-11.6
	v-27.9c0-1.3,0-2.8,0.1-4.5s0.2-6.3,0.5-13.7h-0.4l-15.2,46.1H105.8z"/>
<path class="st1" d="M194.8,464.8l-4.3-14H169l-4.3,14h-13.5l20.8-59.1h15.3l20.9,59.1H194.8z M187.5,440.2
	c-4-12.7-6.2-19.9-6.7-21.6c-0.5-1.7-0.8-3-1.1-3.9c-0.9,3.4-3.4,11.9-7.6,25.5H187.5z"/>
<path class="st2" d="M193.6,394.5c0.1,1.5-0.5,2.9-1.6,3.9c-1.1,1-2.6,1.5-4.1,1.5c-1.4,0-2.9-0.4-4-1.3c-1.1-1-1.7-2.5-1.6-4
	c-0.1-1.6,0.5-3.1,1.6-4.1c1.1-0.9,2.6-1.4,4-1.3c1.5-0.1,3,0.4,4.2,1.5C193.1,391.6,193.6,393,193.6,394.5z"/>
<path class="st2" d="M177.2,394.5c0.1,1.5-0.5,2.9-1.5,3.9c-1.1,1-2.6,1.5-4.2,1.5c-1.5,0.1-3-0.4-4.1-1.4c-1.1-1-1.6-2.5-1.5-4
	c-0.1-1.5,0.5-2.9,1.5-4c2.4-1.9,5.9-1.9,8.2,0.1C176.7,391.6,177.3,393,177.2,394.5z"/>
<path class="st1" d="M250.3,448.3c0,5.3-1.9,9.5-5.7,12.6c-3.8,3-9.2,4.6-16,4.6c-5.8,0.1-11.5-1.1-16.7-3.5v-11.6
	c3.3,1.5,6.6,2.8,10.1,3.7c2.5,0.7,5,1.1,7.5,1.1c2.2,0.1,4.4-0.4,6.3-1.6c1.5-1.1,2.3-2.8,2.2-4.7c0-1.1-0.3-2.2-1-3.1
	c-0.8-1-1.7-1.9-2.8-2.6c-2.5-1.5-5-2.8-7.6-4c-2.9-1.3-5.6-2.9-8.1-4.9c-1.8-1.5-3.2-3.4-4.3-5.4c-1.1-2.3-1.7-4.7-1.6-7.2
	c0-5.2,1.8-9.3,5.3-12.3c3.5-3,8.4-4.5,14.6-4.5c3,0,5.9,0.4,8.8,1.1c3,0.8,5.9,1.8,8.7,3.1l-4,9.7c-2.5-1.1-5.1-2-7.8-2.7
	c-2-0.5-4-0.8-6.1-0.8c-2-0.1-3.9,0.5-5.4,1.6c-1.2,1.1-1.9,2.7-1.9,4.3c0,1,0.2,2,0.8,2.9c0.6,0.9,1.5,1.8,2.4,2.4
	c2.6,1.5,5.2,2.9,7.9,4.1c5.5,2.6,9.3,5.3,11.3,7.9C249.4,441.4,250.4,444.8,250.3,448.3z"/>
<path class="st1" d="M283.7,464.7h-12.5v-48.5h-16v-10.4h44.5v10.4h-16V464.7z"/>
<path class="st1" d="M342.7,464.7h-33.9v-58.9h33.9V416h-21.4V429h19.9v10.2h-19.9v15.2h21.4V464.7z"/>
<path class="st1" d="M367.5,442.1v22.6H355v-58.9h17.2c8,0,13.9,1.5,17.8,4.4s5.8,7.3,5.8,13.3c0,3.3-1,6.5-2.9,9.2
	c-2.1,2.8-4.9,5-8.1,6.4c8.9,13.2,14.6,21.8,17.3,25.7h-13.9l-14.1-22.6H367.5z M367.5,431.9h4c4,0,6.9-0.7,8.7-2
	c1.9-1.3,2.8-3.4,2.8-6.2c0-2.8-1-4.8-2.9-6c-1.9-1.2-4.9-1.8-8.9-1.8h-3.8L367.5,431.9z"/>
<path class="st1" d="M48.2,504.8h18.3c8.3,0,14.4,1.2,18.2,3.6s5.7,6.2,5.7,11.3c0.1,3.1-0.7,6.1-2.5,8.7c-1.6,2.2-3.9,3.7-6.6,4.1
	v0.4c3.7,0.8,6.4,2.4,8.1,4.7c1.7,2.3,2.5,5.3,2.5,9.1c0,5.4-1.9,9.6-5.8,12.6s-9.2,4.5-15.8,4.5h-22L48.2,504.8z M60.7,528.1H68
	c3.4,0,5.8-0.5,7.3-1.6s2.3-2.8,2.3-5.2c0.2-2-0.8-3.8-2.5-4.9c-1.7-1-4.3-1.5-7.8-1.5h-6.6V528.1z M60.7,538v15.3h8.1
	c3.4,0,6-0.7,7.6-2s2.5-3.3,2.5-6c0-4.9-3.5-7.3-10.5-7.3L60.7,538z"/>
<path class="st1" d="M139.7,563.7l-4.3-14H114l-4.3,14H96.2l20.8-59.1h15.3l20.9,59.1H139.7z M132.5,539.2
	c-4-12.7-6.2-19.9-6.7-21.5c-0.5-1.7-0.8-3-1.1-3.9c-0.9,3.4-3.4,11.9-7.6,25.5H132.5z"/>
<path class="st2" d="M122.2,493.4c0.1,1.5-0.5,2.9-1.5,3.9c-1.1,1-2.6,1.6-4.1,1.5c-1.5,0.1-3-0.4-4.1-1.4c-1.1-1-1.6-2.5-1.5-4
	c-0.1-1.5,0.5-2.9,1.5-4c1.1-1,2.6-1.5,4.1-1.4c1.5-0.1,3,0.5,4.2,1.5C121.7,490.5,122.3,492,122.2,493.4z"/>
<path class="st2" d="M138.6,493.4c0.1,1.5-0.5,2.9-1.6,3.9c-1.1,1-2.6,1.5-4.2,1.5c-1.4,0-2.9-0.4-4-1.3c-1.2-1-1.8-2.5-1.6-4
	c-0.1-1.6,0.5-3.1,1.6-4.1c1.1-0.9,2.6-1.4,4-1.3c1.5-0.1,3,0.4,4.2,1.5C138.1,490.5,138.6,492,138.6,493.4z"/>
<path class="st1" d="M185.6,514.3c-4.3-0.2-8.4,1.8-10.9,5.3c-2.6,3.5-3.9,8.4-3.9,14.8c0,13.1,4.9,19.7,14.8,19.7
	c4.1,0,9.1-1,15-3.1v10.5c-5.1,2.1-10.7,3.1-16.2,3c-8.6,0-15.1-2.6-19.7-7.8c-4.5-5.2-6.8-12.7-6.8-22.4c-0.1-5.5,1-11.1,3.3-16.1
	c2.1-4.4,5.4-8.1,9.6-10.6c4.5-2.5,9.5-3.8,14.7-3.7c6,0.1,11.9,1.5,17.2,4.2l-4,10.1c-2.2-1-4.4-1.9-6.7-2.7
	C190,514.7,187.8,514.3,185.6,514.3z"/>
<path class="st1" d="M260.5,563.7h-14.2l-15.4-24.8l-5.3,3.8v21h-12.5v-58.8h12.5v26.9l4.9-6.9l16-20h13.9l-20.5,26L260.5,563.7z"/>
<path class="st1" d="M301.8,563.7h-33.9v-58.9h33.9V515h-21.4V528h19.9v10.2h-19.9v15.2h21.4V563.7z"/>
<path class="st1" d="M326.6,541.1v22.6h-12.5v-58.9h17.2c8,0,13.9,1.5,17.8,4.4c3.8,2.9,5.8,7.3,5.8,13.3c0,3.3-1,6.5-2.9,9.2
	c-2.1,2.8-4.9,5-8.1,6.3c8.9,13.2,14.6,21.8,17.3,25.7h-13.9l-14.1-22.6L326.6,541.1z M326.6,530.9h4c3.9,0,6.9-0.7,8.7-2
	s2.8-3.4,2.8-6.2c0-2.8-1-4.8-2.9-6c-1.9-1.2-4.9-1.8-8.9-1.8h-3.8L326.6,530.9z"/>
<path class="st1" d="M402.5,563.7h-33.9v-58.9h33.9V515h-21.4V528H401v10.2h-19.9v15.2h21.4V563.7z"/>
<path class="st1" d="M414.8,563.7v-58.9h12.5v58.9L414.8,563.7z"/>
<circle class="st2" cx="42.7" cy="69.5" r="15"/>
<circle class="st2" cx="258.8" cy="109.9" r="15"/>
<circle class="st2" cx="159" cy="240.1" r="15"/>
<circle class="st2" cx="393.5" cy="80" r="15"/>
<circle class="st2" cx="369.5" cy="284.1" r="15"/>
<circle class="st2" cx="435.6" cy="192.9" r="15"/>
<circle class="st2" cx="59" cy="272.4" r="15"/>
<circle class="st2" cx="228.4" cy="340.7" r="15"/>
</svg>
